<?xml version="1.0" encoding="UTF-8"?>
<svg version="1.1" xmlns="http://www.w3.org/2000/svg" width="1024" height="1024">
<path d="M0 0 C0.52078125 0.13277344 1.0415625 0.26554688 1.578125 0.40234375 C4.93586102 1.23094635 8.31012199 1.36417055 11.75 1.5625 C12.44738281 1.60568359 13.14476562 1.64886719 13.86328125 1.69335938 C15.57531922 1.79889596 17.28763561 1.8998991 19 2 C19.33 1.34 19.66 0.68 20 0 C20.33 0.66 20.66 1.32 21 2 C23.80922891 2.58087362 23.80922891 2.58087362 27.25390625 2.89453125 C28.58604898 3.0442474 29.91816032 3.19424307 31.25024414 3.34448242 C31.95408234 3.42056732 32.65792053 3.49665222 33.38308716 3.57504272 C47.35852491 5.09773237 60.96812999 7.41393925 74.68798828 10.51318359 C77.78007119 11.16425153 80.86524431 11.60869305 84 12 C84 12.66 84 13.32 84 14 C85.02512695 14.12656982 86.05025391 14.25313965 87.10644531 14.38354492 C93.19662557 15.34778527 98.91618733 17.36063649 104.75 19.3125 C105.40761322 19.5317514 106.06522644 19.75100281 106.74276733 19.97689819 C129.85917438 27.73832424 151.58331336 38.40739059 173 50 C174.27641357 50.69017212 174.27641357 50.69017212 175.57861328 51.39428711 C179.86801286 53.74183449 183.73363381 56.21643741 187.59375 59.21875 C190.07303213 61.05406275 192.61489909 62.74299499 195.19702148 64.4284668 C224.20235964 83.36990391 250.48293238 107.91817351 272 135 C272.9409352 136.13948733 273.88375793 137.27741776 274.828125 138.4140625 C282.32234642 147.49623817 288.85914275 156.95875805 295 167 C295.53302734 167.87140625 296.06605469 168.7428125 296.61523438 169.640625 C303.62871211 181.1749856 310.2553754 192.78333805 316 205 C316.38752441 205.80840332 316.77504883 206.61680664 317.17431641 207.44970703 C323.80619348 221.31635909 329.34314525 235.35207505 334 250 C334.27827637 250.87479004 334.55655273 251.74958008 334.84326172 252.65087891 C344.87336919 284.72664202 349.22840408 317.91111532 349.25 351.4375 C349.25101212 352.85787567 349.25101212 352.85787567 349.25204468 354.3069458 C349.2137012 388.38963741 345.06821949 422.35634628 335 455 C334.71817871 455.93021973 334.43635742 456.86043945 334.14599609 457.81884766 C319.1625994 506.75688821 293.63168992 552.39749692 258.8046875 589.984375 C256.95250438 591.9786262 256.95250438 591.9786262 255.3828125 594.265625 C254.92648437 594.83796875 254.47015625 595.4103125 254 596 C253.34 596 252.68 596 252 596 C251.72921631 596.59530518 251.45843262 597.19061035 251.17944336 597.80395508 C250.01394487 599.97403559 248.85807034 601.39984624 247.12890625 603.13671875 C246.56010742 603.70946533 245.99130859 604.28221191 245.40527344 604.87231445 C244.7971582 605.47132568 244.18904297 606.07033691 243.5625 606.6875 C242.62132324 607.62178833 242.62132324 607.62178833 241.66113281 608.57495117 C237.16739064 612.98253856 232.49034524 617.04482876 227.546875 620.9453125 C225.08594421 622.93066464 222.80149477 625.02092044 220.5 627.1875 C209.39695932 637.29729742 196.64647216 645.94097363 184 654 C183.03835938 654.61746094 182.07671875 655.23492188 181.0859375 655.87109375 C111.98343585 699.34443973 36.20184364 710.85164985 -44 708 C-44 707.67 -44 707.34 -44 707 C-45.79008467 706.77848451 -47.58218162 706.57317787 -49.375 706.375 C-50.37273437 706.25898437 -51.37046875 706.14296875 -52.3984375 706.0234375 C-53.25695312 706.01570312 -54.11546875 706.00796875 -55 706 C-55.66 706.66 -56.32 707.32 -57 708 C-57.23001709 707.35248779 -57.46003418 706.70497559 -57.69702148 706.0378418 C-58.80837279 703.78273654 -58.80837279 703.78273654 -61.16430664 703.47192383 C-62.04981201 703.44638428 -62.93531738 703.42084473 -63.84765625 703.39453125 C-83.9230727 702.23777539 -103.31657127 695.57678637 -122.17944336 689.05151367 C-122.92863037 688.79241211 -123.67781738 688.53331055 -124.44970703 688.26635742 C-125.85452045 687.77813184 -127.25802356 687.28611243 -128.65991211 686.78955078 C-132.08344351 685.59052797 -135.42055384 684.60221792 -139 684 C-139 683.34 -139 682.68 -139 682 C-139.52859619 681.83999512 -140.05719238 681.67999023 -140.60180664 681.51513672 C-146.81664225 679.5491435 -152.58370405 676.97695911 -158.4375 674.125 C-159.75331055 673.49271484 -159.75331055 673.49271484 -161.09570312 672.84765625 C-163.73561131 671.57536447 -166.36890609 670.29041222 -169 669 C-169.90347168 668.55849609 -170.80694336 668.11699219 -171.73779297 667.66210938 C-172.6145166 667.22962891 -173.49124023 666.79714844 -174.39453125 666.3515625 C-175.17803955 665.96564941 -175.96154785 665.57973633 -176.76879883 665.18212891 C-179.82130555 663.56485814 -182.6352604 661.67384677 -185.4765625 659.71484375 C-187.90458908 658.06483807 -190.37303474 656.49185613 -192.85742188 654.9284668 C-213.00421475 642.20871676 -231.3381358 626.95345507 -248.875 610.875 C-249.79490723 610.04029175 -249.79490723 610.04029175 -250.73339844 609.1887207 C-252.19541572 607.83422944 -253.60351132 606.42195656 -255 605 C-255 604.34 -255 603.68 -255 603 C-255.66 603 -256.32 603 -257 603 C-258.65625 601.390625 -258.65625 601.390625 -260.5 599.25 C-261.1084375 598.55390625 -261.716875 597.8578125 -262.34375 597.140625 C-263.87976963 595.15539208 -264.9723966 593.28127955 -266 591 C-266.66 591 -267.32 591 -268 591 C-269.78815919 588.91080391 -271.46610993 586.81350193 -273.125 584.625 C-274.12706961 583.32250523 -275.12967614 582.02042337 -276.1328125 580.71875 C-276.62426758 580.07808594 -277.11572266 579.43742188 -277.62207031 578.77734375 C-279.37014311 576.52256523 -281.184018 574.32527695 -283 572.125 C-288.41168482 565.37984048 -293.19490231 558.18283864 -298 551 C-298.60585938 550.09765625 -299.21171875 549.1953125 -299.8359375 548.265625 C-304.47527245 541.15952171 -308.60366209 533.75442712 -312.73803711 526.34692383 C-314.76590369 522.74400236 -316.68185346 519.38998609 -319.30078125 516.1796875 C-321.24146791 513.69025496 -321.50353304 512.07809513 -322 509 C-322.8082175 507.08412704 -323.66443861 505.18793874 -324.5625 503.3125 C-327 498.20963173 -327 498.20963173 -327 496 C-327.66 495.67 -328.32 495.34 -329 495 C-329.97055653 492.82088423 -330.81816146 490.67792992 -331.625 488.4375 C-331.87934814 487.74438721 -332.13369629 487.05127441 -332.39575195 486.3371582 C-334.75823716 479.82148738 -336.98166013 473.25755475 -339.1875 466.6875 C-339.52023926 465.6987085 -339.85297852 464.70991699 -340.19580078 463.69116211 C-346 446.20131117 -346 446.20131117 -346 440 C-346.66 439.67 -347.32 439.34 -348 439 C-348.4921875 436.9375 -348.4921875 436.9375 -348.875 434 C-349.03613281 432.83984375 -349.19726562 431.6796875 -349.36328125 430.484375 C-349.45818848 429.79794922 -349.5530957 429.11152344 -349.65087891 428.40429688 C-350.54246096 422.2642269 -351.58786137 416.14604069 -352.59130859 410.0234375 C-353.35008959 405.3288002 -354.06809772 400.6528192 -354.55859375 395.921875 C-354.85094075 392.1002786 -354.85094075 392.1002786 -356 389 C-356.10357985 387.10892501 -356.14855458 385.21442443 -356.16113281 383.32055664 C-356.17074036 382.14985123 -356.1803479 380.97914581 -356.19024658 379.77296448 C-356.19449646 378.49823776 -356.19874634 377.22351105 -356.203125 375.91015625 C-356.20595238 375.25280424 -356.20877975 374.59545223 -356.21169281 373.91818047 C-356.22672441 370.41053747 -356.23591731 366.9029357 -356.24023438 363.39526367 C-356.24454668 360.55137788 -356.25814189 357.70780795 -356.28125 354.86401367 C-356.47533636 330.47111364 -355.16190653 306.42313658 -350.3125 282.4375 C-350.05976318 281.16430908 -349.80702637 279.89111816 -349.54663086 278.5793457 C-345.97762559 261.05281328 -340.93944595 243.81692464 -334.08227539 227.2878418 C-332.86360212 224.34965593 -332 222.21802758 -332 219 C-331.34 219 -330.68 219 -330 219 C-329.61328125 217.74316406 -329.2265625 216.48632812 -328.828125 215.19140625 C-320.17233571 189.32996588 -303.24237357 165.62299048 -287 144 C-286.01297701 142.66800122 -285.02599673 141.33597079 -284.0390625 140.00390625 C-279.07645914 133.38392672 -279.07645914 133.38392672 -277 131 C-276.34 131 -275.68 131 -275 131 C-275 130.01 -275 129.02 -275 128 C-273.60477248 126.80895211 -272.20065625 125.6269466 -270.7565918 124.49560547 C-268.90144037 122.9160839 -267.40252043 121.24432722 -265.83203125 119.3828125 C-261.82912903 114.74578716 -257.58223208 110.39103918 -253.25 106.0625 C-252.46230225 105.27415771 -251.67460449 104.48581543 -250.86303711 103.67358398 C-245.8135626 98.66964219 -240.68960418 93.98490465 -235.06640625 89.62890625 C-232.99116926 88.06892443 -232.99116926 88.06892443 -231.33984375 86.27734375 C-230 85 -230 85 -228 85 C-228 84.34 -228 83.68 -228 83 C-226.49731445 81.61816406 -226.49731445 81.61816406 -224.36328125 80.015625 C-223.56929932 79.4172583 -222.77531738 78.8188916 -221.95727539 78.20239258 C-221.08449951 77.55810303 -220.21172363 76.91381348 -219.3125 76.25 C-218.41200928 75.58186279 -217.51151855 74.91372559 -216.58374023 74.2253418 C-200.40399756 62.32356625 -183.67176147 51.54990788 -166 42 C-165.15453613 41.54028809 -164.30907227 41.08057617 -163.43798828 40.60693359 C-116.49048225 15.35506954 -64.2415745 2.52028388 -11.14233398 1.34057617 C-9.84497314 1.30939697 -8.5476123 1.27821777 -7.2109375 1.24609375 C-6.03837402 1.22216553 -4.86581055 1.1982373 -3.65771484 1.17358398 C-1.07868091 1.2985203 -1.07868091 1.2985203 0 0 Z M-140.62890625 134.7890625 C-147.02825717 142.77668606 -147.29469954 150.11305419 -147.26742554 160.04975891 C-147.27195665 161.26149928 -147.27648776 162.47323964 -147.28115618 163.72169942 C-147.29160586 167.0729166 -147.29312957 170.4239187 -147.29076743 173.77513683 C-147.29035845 177.39420466 -147.30140614 181.01324075 -147.31088257 184.6322937 C-147.32747563 191.71804425 -147.33299134 198.80376151 -147.33410732 205.88952986 C-147.33505856 211.65062855 -147.33917264 217.41171629 -147.34550858 223.17281151 C-147.36311604 239.51604934 -147.37234817 255.85926093 -147.37084763 272.20250831 C-147.37076772 273.08306094 -147.3706878 273.96361357 -147.37060547 274.87084961 C-147.37052371 275.75248058 -147.37044195 276.63411155 -147.37035771 277.54245862 C-147.36954485 291.82955998 -147.38868363 306.11655591 -147.4168822 320.40362678 C-147.44562541 335.08276527 -147.45942172 349.76185237 -147.45769465 364.44101971 C-147.45703127 372.67854751 -147.46250101 380.91596476 -147.48405075 389.15346718 C-147.50228143 396.16702939 -147.50659442 403.18043093 -147.4930319 410.1940066 C-147.48651182 413.77000215 -147.48634988 417.34568961 -147.5037384 420.92165565 C-147.52242365 424.80434226 -147.50988953 428.68658151 -147.49447632 432.56929016 C-147.50476344 433.69099855 -147.51505057 434.81270694 -147.52564943 435.9684065 C-147.45584246 443.93882283 -146.14774147 451.09504836 -141.03515625 457.4375 C-140.38417969 457.953125 -139.73320312 458.46875 -139.0625 459 C-138.08990234 459.804375 -138.08990234 459.804375 -137.09765625 460.625 C-132.53361089 463.61670199 -128.68356005 464.31462711 -123.25 464.375 C-122.10015625 464.40335938 -120.9503125 464.43171875 -119.765625 464.4609375 C-111.97453224 463.50725602 -105.28936673 459.18820275 -98.625 455.25 C-97.42339233 454.54762207 -97.42339233 454.54762207 -96.19750977 453.83105469 C-88.51695461 449.33137935 -80.86934066 444.77530557 -73.21716309 440.2276001 C-63.54831979 434.48231078 -53.82640176 428.83566635 -44.0769043 423.22802734 C-35.35075911 418.20830949 -26.66331036 413.12722543 -18 408 C-14.58353528 405.97882507 -11.16687916 403.95797423 -7.75 401.9375 C-6.83581299 401.39689941 -5.92162598 400.85629883 -4.97973633 400.29931641 C2.69132386 395.76632811 10.37485522 391.25477717 18.0625 386.75 C18.97566986 386.21487793 18.97566986 386.21487793 19.9072876 385.66894531 C26.11074752 382.03394764 32.31522336 378.40068724 38.52047729 374.76875305 C41.55560103 372.99215151 44.59040068 371.21499711 47.625 369.4375 C48.22405151 369.08662323 48.82310303 368.73574646 49.44030762 368.37423706 C59.36768024 362.55797603 69.26866461 356.69834947 79.16162109 350.82373047 C86.67106365 346.36856347 94.20303347 341.95376593 101.75 337.5625 C110.54259614 332.44395296 119.31520639 327.29973398 128 322 C129.04800781 321.36449219 130.09601563 320.72898437 131.17578125 320.07421875 C138.99966411 315.23481041 145.96728323 310.0981503 149 301 C149.86339905 292.78537472 149.15718863 286.60338438 144 280 C136.94341736 273.10379423 127.75458235 268.15458911 119.3125 263.125 C118.43891846 262.60252686 117.56533691 262.08005371 116.6652832 261.54174805 C110.5929583 257.92066757 104.47496407 254.39238672 98.32421875 250.90625 C94.24547243 248.56732144 90.21706061 246.14931873 86.19091797 243.72167969 C80.24785501 240.14085812 74.28310431 236.59718745 68.3125 233.0625 C66.87680664 232.2103894 66.87680664 232.2103894 65.41210938 231.34106445 C64.50912109 230.80698975 63.60613281 230.27291504 62.67578125 229.72265625 C61.87052002 229.24578369 61.06525879 228.76891113 60.2355957 228.27758789 C58.18708301 227.10691333 56.11043617 226.05283011 54 225 C52.74328395 224.2727982 51.49490693 223.53105126 50.25390625 222.77734375 C49.51374268 222.32987793 48.7735791 221.88241211 48.01098633 221.42138672 C47.20298584 220.9317041 46.39498535 220.44202148 45.5625 219.9375 C36.85103853 214.68333086 28.0924855 209.5134294 19.3125 204.375 C18.68600555 204.00825165 18.05951111 203.6415033 17.41403198 203.26364136 C14.36405413 201.47829928 11.31374239 199.69352891 8.26318359 197.90917969 C4.04826681 195.44317271 -0.16486936 192.97416924 -4.375 190.5 C-5.02944092 190.11545654 -5.68388184 189.73091309 -6.3581543 189.3347168 C-11.50842004 186.30232961 -16.63479272 183.2305606 -21.74365234 180.12890625 C-24.89052326 178.22753944 -28.06569005 176.39710619 -31.28515625 174.62109375 C-36.39268804 171.80055679 -41.41759505 168.84808381 -46.4375 165.875 C-47.86896362 165.02893188 -47.86896362 165.02893188 -49.3293457 164.16577148 C-55.48299878 160.5192191 -61.59696785 156.81332879 -67.6875 153.0625 C-73.12305528 149.71572736 -78.59196263 146.52024721 -84.23046875 143.5234375 C-87.71192479 141.60839116 -91.10159651 139.55776445 -94.5 137.5 C-96.41018062 136.3544191 -98.32124422 135.2103228 -100.23242188 134.06640625 C-101.83508237 133.09949727 -103.42607827 132.11331921 -105.015625 131.125 C-116.89400685 124.06584735 -130.76068479 123.95058426 -140.62890625 134.7890625 Z M-162.02856541 510.25598431 C-163.05569128 510.30152657 -164.08281715 510.34706884 -165.14106804 510.39399117 C-168.6632295 511.14058499 -170.40870186 512.54418509 -173 515 C-176.95268647 522.17689147 -176.91830401 530.4314842 -174.7578125 538.17578125 C-173.14853108 542.04967004 -170.38606979 544.33191559 -166.6827597 546.11690778 C-163.75686369 547.08003392 -161.46392475 547.25172722 -158.38834476 547.25447559 C-156.70170722 547.26322388 -156.70170722 547.26322388 -154.98099619 547.27214891 C-153.75065871 547.26836958 -152.52032124 547.26459026 -151.25270081 547.26069641 C-149.28641225 547.26643473 -149.28641225 547.26643473 -147.28040069 547.27228898 C-143.64334586 547.28258454 -140.00638943 547.28038321 -136.36932647 547.27610838 C-132.44628003 547.273644 -128.52325746 547.28265173 -124.60021973 547.29014587 C-116.91528394 547.30290272 -109.23038307 547.30468535 -101.54543848 547.30234561 C-95.29989526 547.30056346 -89.05436267 547.30230988 -82.80882072 547.30657005 C-81.92033955 547.30716524 -81.03185838 547.30776043 -80.11645354 547.30837366 C-78.3115786 547.30958539 -76.50670365 547.31079952 -74.70182871 547.31201603 C-57.77144002 547.32289529 -40.84107124 547.3207272 -23.91068142 547.31463119 C-8.41799694 547.30946119 7.07462469 547.32071896 22.56729674 547.33972941 C38.47128449 547.35909513 54.37524248 547.36736606 70.2792421 547.36360615 C79.20970068 547.36169225 88.14010575 547.36420013 97.07055473 547.37832069 C104.67275182 547.39021932 112.27486246 547.39165645 119.8770607 547.37953053 C123.75628042 547.37363125 127.63534188 547.37257125 131.51455116 547.38453293 C135.71839931 547.3973451 139.92186889 547.38695234 144.12571716 547.3742218 C145.35382392 547.38159609 146.58193067 547.38897037 147.84725279 547.39656812 C153.69728173 547.3591615 158.07217928 547.3144832 163 544 C163 543.34 163 542.68 163 542 C163.66 542 164.32 542 165 542 C168.22252178 533.93459237 169.46250821 525.21434856 166.171875 516.91015625 C164.29385251 513.86209594 162.26793178 512.2963125 159 511 C156.44790679 510.69656915 156.44790679 510.69656915 153.64026737 510.73549366 C152.54653405 510.72741147 151.45280073 510.71932928 150.32592398 510.71100217 C149.12468514 510.71225479 147.92344629 510.7135074 146.68580627 510.71479797 C145.40932549 510.70830001 144.1328447 510.70180204 142.81768268 510.69510716 C139.27171268 510.67734121 135.72581531 510.67199927 132.17980635 510.66866672 C128.35611643 510.66292138 124.5324759 510.64573605 120.70881653 510.62997437 C113.2145898 510.60090894 105.72037251 510.5824809 98.22610558 510.56763426 C89.49360225 510.54995445 80.76114139 510.52192812 72.02866756 510.49350204 C56.4381554 510.44311982 40.84763273 510.40237955 25.25708008 510.36694336 C10.14344595 510.33258445 -4.97014713 510.29117419 -20.08374023 510.24194336 C-21.01325571 510.23891641 -21.94277119 510.23588946 -22.9004538 510.23277078 C-23.82838783 510.22974874 -24.75632186 510.2267267 -25.7123751 510.22361308 C-42.92762695 510.16761381 -60.1428927 510.11848744 -77.35817377 510.07241303 C-83.43753811 510.05598029 -89.51689424 510.03749252 -95.59625053 510.01833534 C-103.01744301 509.99507972 -110.43863436 509.97577647 -117.85984933 509.96130244 C-121.64267353 509.95385079 -125.42547481 509.94481638 -129.20828247 509.93125343 C-133.31984068 509.91658026 -137.43137318 509.91004321 -141.54295349 509.9042511 C-142.72411584 509.89881155 -143.90527819 509.893372 -145.12223333 509.88776761 C-150.76165786 509.88646049 -156.39537148 509.98509494 -162.02856541 510.25598431 Z M-173.94921875 587.359375 C-176.67756298 594.21573447 -176.84498751 602.93525194 -174.9296875 610.05859375 C-173.21254798 613.6443851 -170.38415812 616.00091925 -167 618 C-163.9606 618.94320272 -161.20917272 619.12647299 -158.03540039 619.12939453 C-156.55850487 619.13412277 -156.55850487 619.13412277 -155.05177307 619.13894653 C-153.99441452 619.1369223 -152.93705597 619.13489807 -151.84765625 619.1328125 C-150.75537216 619.13376923 -149.66308807 619.13472595 -148.53770447 619.13571167 C-146.22866763 619.13639189 -143.91962887 619.13454859 -141.6105957 619.13037109 C-138.07954602 619.1250258 -134.54862383 619.13031881 -131.01757812 619.13671875 C-128.77343722 619.13605784 -126.52929639 619.13477641 -124.28515625 619.1328125 C-123.22982193 619.13483673 -122.17448761 619.13686096 -121.08717346 619.13894653 C-120.09942429 619.13579437 -119.11167511 619.13264221 -118.09399414 619.12939453 C-117.22891739 619.12859894 -116.36384064 619.12780334 -115.47254944 619.12698364 C-112.96767192 619.06182609 -112.96767192 619.06182609 -110.43409729 618.46495056 C-108.01782998 618.0034058 -106.37072112 618.05654511 -103.96044922 618.43139648 C-98.18121801 619.17381905 -92.45199551 619.124875 -86.6328125 619.09765625 C-85.47627167 619.0962413 -84.31973083 619.09482635 -83.12814331 619.09336853 C-79.46040169 619.08780689 -75.7927229 619.07526861 -72.125 619.0625 C-69.63802173 619.0574794 -67.15104248 619.05291748 -64.6640625 619.04882812 C-59.21345262 619.03902711 -53.76287472 619.02484031 -48.31228638 619.00672913 C-44.82847168 618.99659066 -41.34488172 619.00447828 -37.86108398 619.01586914 C-31.99129771 619.03393661 -26.12151494 619.04544769 -20.25170898 619.05493164 C-17.72143129 619.05995235 -15.19115649 619.06677023 -12.66088867 619.07543945 C-9.00178317 619.08764365 -5.34271598 619.09325859 -1.68359375 619.09765625 C-0.56343369 619.10281754 0.55672638 619.10797882 1.71083069 619.11329651 C2.78151291 619.11337204 3.85219513 619.11344757 4.95532227 619.11352539 C5.88337173 619.115746 6.8114212 619.11796661 7.76759338 619.12025452 C10.46172081 619.02002548 13.0477664 618.77620828 15.7217865 618.46621704 C21.03889337 617.90997444 26.16970488 618.10410922 31.49609375 618.42700195 C44.35496963 619.09044019 57.1889339 619.16386117 70.0625 619.16796875 C72.47908547 619.17119268 74.89567076 619.17455755 77.31225586 619.17805481 C82.32406061 619.18397996 87.33584826 619.18590103 92.34765625 619.18530273 C98.76184991 619.18520013 105.17593533 619.19898237 111.59010315 619.21607494 C116.55721543 619.22718339 121.52430113 619.22922249 126.49142456 619.22869301 C128.85806662 619.22986984 131.22470945 619.23427488 133.59133911 619.24202538 C136.88519059 619.25182519 140.17880088 619.24894987 143.47265625 619.24291992 C144.92357666 619.25134918 144.92357666 619.25134918 146.40380859 619.25994873 C152.92105633 619.22964018 158.34734714 618.88633092 163.8125 615 C168.61987396 608.40702999 168.41968761 600.57172325 167.53125 592.70703125 C166.79294894 588.94495303 165.6784338 586.7489189 163 584 C156.54693309 580.30047625 150.36670097 580.57632106 143.06361389 580.61231995 C141.75654069 580.60693441 140.44946749 580.60154887 139.102786 580.59600013 C135.48547085 580.58156316 131.86838387 580.58578469 128.25105631 580.59316695 C124.34571935 580.59790065 120.44043162 580.585387 116.53511047 580.57514954 C108.88853269 580.55796034 101.24203707 580.55712175 93.59544498 580.56236244 C87.37999661 580.56640503 81.16457251 580.56495952 74.94912529 580.55961418 C74.06426791 580.55886576 73.17941052 580.55811734 72.26773928 580.55734624 C70.47011586 580.55581475 68.67249245 580.5542764 66.87486904 580.55273127 C50.02022733 580.53900587 33.16563205 580.54444427 16.3109914 580.55591648 C0.89412918 580.56584962 -14.52261304 580.55290688 -29.93945675 580.52898229 C-45.77346325 580.50459563 -61.60741384 580.49498231 -77.44143873 580.50163502 C-86.32946835 580.50512811 -95.21740566 580.50288919 -104.10542107 580.48538399 C-111.6713057 580.47066746 -119.23703302 580.47001938 -126.80291455 580.4874549 C-130.66218564 580.49597172 -134.52117565 580.49809801 -138.38043213 580.48280334 C-142.56605971 580.46642073 -146.75100818 580.48109296 -150.93663025 580.49879456 C-152.15365613 580.48918955 -153.37068202 580.47958454 -154.62458748 580.46968848 C-162.25597143 580.53618652 -168.77521111 581.09664831 -173.94921875 587.359375 Z " fill="#5F4F91" transform="translate(516,156)"/>
<path d="M0 0 C103.29 0 206.58 0 313 0 C313 0.33 313 0.66 313 1 C312.37730783 1.00173625 311.75461566 1.0034725 311.11305404 1.00526136 C274.22884883 1.10823055 237.34466198 1.21633029 200.46049158 1.33111694 C196.03437081 1.34488695 191.6082499 1.35861398 187.18212891 1.37231445 C186.30094679 1.37504276 185.41976467 1.37777106 184.51188007 1.38058204 C170.2332659 1.42468873 155.95464383 1.46531146 141.67601582 1.50465261 C127.03102368 1.54508051 112.38604623 1.58923858 97.74107575 1.63687855 C88.70022678 1.66617021 79.65937892 1.69253252 70.61851081 1.71517897 C64.42363359 1.73097488 58.22877436 1.7503854 52.0339171 1.77266841 C48.4568018 1.78542768 44.87970034 1.79656443 41.30256844 1.80341911 C37.42847331 1.81088439 33.55442934 1.82594632 29.68035889 1.84178162 C28.54418051 1.84275972 27.40800212 1.84373783 26.23739409 1.84474558 C25.20182821 1.85022002 24.16626232 1.85569446 23.09931564 1.8613348 C21.757384 1.86532186 21.757384 1.86532186 20.38834262 1.86938947 C18.11464662 1.99373036 16.18964443 2.40835283 14 3 C11.96147547 3.1405879 9.91814464 3.21987993 7.875 3.25 C6.82054687 3.27578125 5.76609375 3.3015625 4.6796875 3.328125 C3.79539062 3.21984375 2.91109375 3.1115625 2 3 C1.34 2.01 0.68 1.02 0 0 Z " fill="#4D3983" transform="translate(360,664)"/>
<path d="M0 0 C1.32826608 0.73016437 1.32826608 0.73016437 2.68336582 1.47507954 C8.27000253 3.84512008 14.09471052 3.42221391 20.06614685 3.39872742 C21.40037974 3.40417079 22.73460783 3.41092398 24.06882817 3.41886932 C27.72437599 3.43686637 31.37972037 3.43634107 35.03530204 3.43273985 C38.98139776 3.4321154 42.92742557 3.44874168 46.87348938 3.46325684 C53.70673057 3.4860386 60.53992079 3.49792722 67.37319756 3.50238609 C77.25291559 3.50884864 87.13254151 3.53178787 97.01222242 3.55872939 C113.0419081 3.60199514 129.07158991 3.63196311 145.10131836 3.65356445 C160.67132473 3.67457477 176.24129937 3.70185034 191.8112793 3.73754883 C193.25123956 3.74084707 193.25123956 3.74084707 194.72028994 3.74421193 C199.53626668 3.7552816 204.35224313 3.76647441 209.16821945 3.77772844 C249.11211864 3.87091054 289.05603443 3.94250991 329 4 C329 4.33 329 4.66 329 5 C287.80943646 5.06863297 246.61888035 5.12151192 205.42827107 5.15319599 C200.5678219 5.15694821 195.70737284 5.16083117 190.84692383 5.16479492 C189.87927619 5.16558185 188.91162856 5.16636878 187.91465827 5.16717956 C172.23669195 5.18024147 156.55875856 5.20389963 140.88081179 5.23145839 C124.79958323 5.25949075 108.71837194 5.27617166 92.63711995 5.28226548 C82.71025923 5.28638643 72.78349157 5.2994126 62.85665949 5.3237494 C56.05392745 5.33957982 49.25124367 5.34440648 42.44849453 5.34050413 C38.52081942 5.33857838 34.59330718 5.3415769 30.66566086 5.35761642 C27.07117435 5.37218852 23.47696062 5.37297006 19.88246169 5.36269668 C17.96345651 5.36082395 16.04445464 5.37378688 14.12549573 5.38724393 C12.98692032 5.38127078 11.84834491 5.37529764 10.67526722 5.36914349 C9.20176248 5.37085223 9.20176248 5.37085223 7.69848996 5.37259549 C4.49512528 4.93028914 2.57931409 3.9260173 0 2 C0 1.34 0 0.68 0 0 Z " fill="#322567" transform="translate(344,700)"/>
<path d="M0 0 C0.33 0 0.66 0 1 0 C3.89033629 10.85260994 3.22142039 22.06186033 3.125 33.1875 C3.11495176 35.20897995 3.10582916 37.23046472 3.09765625 39.25195312 C3.07578514 44.16808936 3.04135645 49.08399065 3 54 C2.34 54 1.68 54 1 54 C1 56.97 1 59.94 1 63 C0.67 63 0.34 63 0 63 C0 42.21 0 21.42 0 0 Z " fill="#514280" transform="translate(862,476)"/>
<path d="M0 0 C29.205 0.495 29.205 0.495 59 1 C59 1.33 59 1.66 59 2 C42.07138686 3.79386212 24.98274547 4.91390969 8 3 C7.67 2.67 7.34 2.34 7 2 C4.67182036 1.63239269 2.3381615 1.29758419 0 1 C0 0.67 0 0.34 0 0 Z " fill="#453376" transform="translate(476,861)"/>
<path d="M0 0 C0.99 0.33 1.98 0.66 3 1 C0.31011108 4.58651856 -2.4814365 7.24220698 -6 10 C-6.33 10.66 -6.66 11.32 -7 12 C-7.66 12 -8.32 12 -9 12 C-9.23460937 12.55429687 -9.46921875 13.10859375 -9.7109375 13.6796875 C-11.32454292 16.58417725 -13.34723795 18.70620005 -15.625 21.125 C-20.34680887 26.22427905 -24.73600396 31.5092118 -29 37 C-29.495 35.515 -29.495 35.515 -30 34 C-28.47300428 31.62828324 -26.94164766 29.50340432 -25.1875 27.3125 C-24.72279297 26.70599609 -24.25808594 26.09949219 -23.77929688 25.47460938 C-22.57469335 23.93817819 -21.29227267 22.46346226 -20 21 C-19.34 21 -18.68 21 -18 21 C-18 20.01 -18 19.02 -18 18 C-16.61345491 16.81636395 -15.2182667 15.64135325 -13.78125 14.51953125 C-11.11606237 12.24593917 -8.94757306 9.59848572 -6.6796875 6.9375 C-4.56353555 4.49654333 -2.31829594 2.24804455 0 0 Z " fill="#5A4A86" transform="translate(259,266)"/>
<path d="M0 0 C0.78117188 0.19916016 0.78117188 0.19916016 1.578125 0.40234375 C4.93586102 1.23094635 8.31012199 1.36417055 11.75 1.5625 C12.44738281 1.60568359 13.14476562 1.64886719 13.86328125 1.69335938 C15.57531922 1.79889596 17.28763561 1.8998991 19 2 C19.33 1.34 19.66 0.68 20 0 C20.495 0.99 20.495 0.99 21 2 C23.35599235 2.46751788 23.35599235 2.46751788 26.0625 2.625 C27.44115234 2.73714844 27.44115234 2.73714844 28.84765625 2.8515625 C29.55792969 2.90054688 30.26820313 2.94953125 31 3 C31 3.33 31 3.66 31 4 C30.28225403 3.99777939 29.56450806 3.99555878 28.82501221 3.99327087 C22.05683596 3.97322351 15.28866416 3.95800317 8.52046585 3.94818783 C5.04097475 3.94297202 1.56150821 3.93589801 -1.91796875 3.92456055 C-5.91927322 3.91160455 -9.92055193 3.90676102 -13.921875 3.90234375 C-15.16990906 3.89718246 -16.41794312 3.89202118 -17.70379639 3.88670349 C-18.86469788 3.88662796 -20.02559937 3.88655243 -21.22167969 3.88647461 C-22.24316101 3.884254 -23.26464233 3.88203339 -24.31707764 3.87974548 C-26.72405373 3.98763148 -28.68786553 4.38590082 -31 5 C-33.08674954 4.91620565 -35.17149066 4.76583244 -37.25 4.5625 C-38.32765625 4.46066406 -39.4053125 4.35882813 -40.515625 4.25390625 C-41.33546875 4.17011719 -42.1553125 4.08632812 -43 4 C-43 3.67 -43 3.34 -43 3 C-38.46530711 2.71157159 -33.93039925 2.42689008 -29.39526367 2.14550781 C-27.8561384 2.04950377 -26.3170739 1.95251962 -24.77807617 1.85449219 C-10.32867689 0.9352834 -10.32867689 0.9352834 -4.49609375 1 C-3.34238281 1 -2.18867187 1 -1 1 C-0.67 0.67 -0.34 0.34 0 0 Z " fill="#706099" transform="translate(516,156)"/>
<path d="M0 0 C3.86407355 1.43879316 7.32825499 3.2356169 10.89453125 5.30078125 C12.01537109 5.94853516 13.13621094 6.59628906 14.29101562 7.26367188 C14.87020752 7.60068115 15.44939941 7.93769043 16.04614258 8.28491211 C17.79496155 9.30229692 19.54660746 10.31465931 21.29882812 11.32617188 C27.26676785 14.78381489 33.17983181 18.29885983 39 22 C37.40991211 22.71972656 37.40991211 22.71972656 35 23 C32.66625249 21.92458873 30.61660961 20.82150206 28.44140625 19.484375 C27.81523911 19.11274231 27.18907196 18.74110962 26.54393005 18.35821533 C24.54297029 17.16698945 22.55283687 15.95887409 20.5625 14.75 C19.22658998 13.95068779 17.89000797 13.15249756 16.55273438 12.35546875 C13.0269811 10.25032686 9.51274601 8.12677012 6 6 C5.05761475 5.4834082 4.11522949 4.96681641 3.14428711 4.43457031 C1 3 1 3 0 0 Z " fill="#5D4D8D" transform="translate(578,384)"/>
<path d="M0 0 C0.58773193 0.20230225 1.17546387 0.40460449 1.78100586 0.61303711 C0.82323242 1.19569336 -0.13454102 1.77834961 -1.12133789 2.37866211 C-9.56164951 7.5616664 -17.74624828 12.9721683 -25.72070312 18.85229492 C-26.39689697 19.34310547 -27.07309082 19.83391602 -27.76977539 20.33959961 C-28.36443604 20.77868652 -28.95909668 21.21777344 -29.57177734 21.67016602 C-31.21899414 22.61303711 -31.21899414 22.61303711 -34.21899414 22.61303711 C-27.32853561 15.00977252 -18.34829597 9.57703482 -9.78149414 4.05053711 C-9.09531006 3.59654541 -8.40912598 3.14255371 -7.70214844 2.67480469 C-2.72661702 -0.47548553 -2.72661702 -0.47548553 0 0 Z " fill="#574684" transform="translate(336.218994140625,207.386962890625)"/>
<path d="M0 0 C1.92875977 0.00483398 1.92875977 0.00483398 3.89648438 0.00976562 C5.2343757 0.01811823 6.57226632 0.02658314 7.91015625 0.03515625 C9.27538899 0.04017966 10.64062351 0.04474108 12.00585938 0.04882812 C15.32817082 0.06056774 18.65039033 0.07698946 21.97265625 0.09765625 C22.46765625 1.58265625 22.46765625 1.58265625 22.97265625 3.09765625 C9.77265625 3.09765625 -3.42734375 3.09765625 -17.02734375 3.09765625 C-11.85902361 -0.34789051 -6.06370511 -0.0269498 0 0 Z " fill="#49397E" transform="translate(625.02734375,773.90234375)"/>
<path d="M0 0 C18.48 0 36.96 0 56 0 C56 0.33 56 0.66 56 1 C54.86981445 1.02505615 53.73962891 1.0501123 52.57519531 1.07592773 C48.37814183 1.17016956 44.18124737 1.27034926 39.984375 1.37231445 C38.16865766 1.41559986 36.35290129 1.45727944 34.53710938 1.49731445 C31.92566167 1.55517202 29.31440923 1.61882172 26.703125 1.68359375 C25.89256653 1.70030624 25.08200806 1.71701874 24.24688721 1.73423767 C20.67062513 1.82803203 17.45122929 2.10968894 14 3 C11.96147547 3.1405879 9.91814464 3.21987993 7.875 3.25 C6.82054687 3.27578125 5.76609375 3.3015625 4.6796875 3.328125 C3.79539062 3.21984375 2.91109375 3.1115625 2 3 C1.34 2.01 0.68 1.02 0 0 Z " fill="#554288" transform="translate(360,664)"/>
<path d="M0 0 C3 1 3 1 4.76171875 4 C5.41462415 5.32799198 6.05577042 6.66180498 6.6875 8 C7.02910156 8.70680908 7.37070312 9.41361816 7.72265625 10.1418457 C8.4476711 11.64661535 9.16807809 13.15361229 9.88427734 14.66259766 C11.0036833 17.0077164 12.14943576 19.33838859 13.30078125 21.66796875 C14.03472541 23.17405491 14.76782353 24.6805537 15.5 26.1875 C15.85022217 26.89326172 16.20044434 27.59902344 16.5612793 28.32617188 C18.32624882 32.01870313 19.44772242 34.88255276 19 39 C16.88627555 36.3375635 15.32981886 33.80967428 13.984375 30.69140625 C13.62335693 29.86753418 13.26233887 29.04366211 12.89038086 28.19482422 C12.51405518 27.32615723 12.13772949 26.45749023 11.75 25.5625 C8.54602922 18.2781685 5.14094807 11.26226213 1.21484375 4.3359375 C0 2 0 2 0 0 Z " fill="#514280" transform="translate(820,342)"/>
<path d="M0 0 C3.73248991 1.64300991 6.68125151 3.98323062 9.875 6.5 C16.76494654 11.88467228 23.85299935 16.9638826 31 22 C29.22119141 22.64038086 29.22119141 22.64038086 27 23 C25.23583984 22.13891602 25.23583984 22.13891602 23.4609375 20.75390625 C22.80230713 20.24980225 22.14367676 19.74569824 21.46508789 19.22631836 C20.77535889 18.6772583 20.08562988 18.12819824 19.375 17.5625 C18.66657959 17.01279541 17.95815918 16.46309082 17.22827148 15.89672852 C15.80610652 14.79002501 14.38830444 13.67769035 12.97509766 12.55957031 C11.24952341 11.19702788 9.51097914 9.85530508 7.76171875 8.5234375 C1.13381254 3.40143762 1.13381254 3.40143762 0 0 Z " fill="#564584" transform="translate(288,783)"/>
<path d="M0 0 C0.495 1.485 0.495 1.485 1 3 C-3.94790177 3.0493651 -8.89566083 3.08570269 -13.84375 3.10986328 C-15.52769466 3.11993317 -17.21162179 3.13358988 -18.89550781 3.15087891 C-21.31319501 3.17508426 -23.73065143 3.18647296 -26.1484375 3.1953125 C-26.9036972 3.20563507 -27.65895691 3.21595764 -28.43710327 3.22659302 C-30.2929398 3.22699318 -32.1481928 3.12222716 -34 3 C-34.66 2.34 -35.32 1.68 -36 1 C-23.98321123 0.26131705 -12.03942433 -0.13873856 0 0 Z " fill="#48377C" transform="translate(385,774)"/>
<path d="M0 0 C5.56072494 3.05936078 8.97304476 7.1843379 13 12 C13.69480469 12.80824219 14.38960937 13.61648438 15.10546875 14.44921875 C16.07419922 15.61904297 16.07419922 15.61904297 17.0625 16.8125 C17.65160156 17.52019531 18.24070312 18.22789062 18.84765625 18.95703125 C20 21 20 21 19.68359375 23.26171875 C19.45800781 23.83535156 19.23242188 24.40898437 19 25 C16.26573312 23.63286656 15.60341769 21.53950108 14.17285156 18.94287109 C12.25628733 15.76801303 9.82982628 13.07910234 7.375 10.3125 C1.52356317 3.68343801 1.52356317 3.68343801 0 0 Z " fill="#564584" transform="translate(777,281)"/>
<path d="M0 0 C0 0.99 0 1.98 0 3 C-3.60401481 3.08701039 -7.20776012 3.14039388 -10.8125 3.1875 C-12.34874023 3.22520508 -12.34874023 3.22520508 -13.91601562 3.26367188 C-15.39038086 3.27817383 -15.39038086 3.27817383 -16.89453125 3.29296875 C-17.80050049 3.3086792 -18.70646973 3.32438965 -19.63989258 3.34057617 C-22.42444206 2.93875073 -23.27599535 2.16311438 -25 0 C-16.56758584 -1.35520942 -8.46334215 -0.67499048 0 0 Z " fill="#665697" transform="translate(552,774)"/>
<path d="M0 0 C0.33 0 0.66 0 1 0 C1.32617884 7.73164656 1.075962 15.02314858 -0.3125 22.625 C-0.48906128 23.63626953 -0.48906128 23.63626953 -0.66918945 24.66796875 C-1.43437304 28.54529059 -2.54448562 30.95318145 -5 34 C-4.42128908 26.17339378 -3.33870899 18.5315276 -1.9375 10.8125 C-1.75123047 9.76513672 -1.56496094 8.71777344 -1.37304688 7.63867188 C-0.91947338 5.09168227 -0.46174232 2.54551901 0 0 Z " fill="#514181" transform="translate(860,553)"/>
<path d="M0 0 C1.1530054 3.51836206 0.89094212 6.4063027 0.5 10.0625 C-0.0468096 16.18123021 0.20792016 21.91926398 1 28 C-1 27 -1 27 -2.10546875 24.40625 C-3.0916279 20.65109375 -3.30067113 17.37986913 -3.3125 13.5 C-3.33763672 11.59734375 -3.33763672 11.59734375 -3.36328125 9.65625 C-2.97799171 5.77849725 -1.95322922 3.33955814 0 0 Z " fill="#574689" transform="translate(341,742)"/>
<path d="M0 0 C0.66 0.33 1.32 0.66 2 1 C4.04055005 1.07065617 6.08334257 1.08421976 8.125 1.0625 C9.22070312 1.05347656 10.31640625 1.04445313 11.4453125 1.03515625 C12.28835938 1.02355469 13.13140625 1.01195312 14 1 C14 1.33 14 1.66 14 2 C11.69 2.33 9.38 2.66 7 3 C7 3.33 7 3.66 7 4 C4.06195004 4.08086376 1.12611925 4.1404283 -1.8125 4.1875 C-3.06256836 4.22520508 -3.06256836 4.22520508 -4.33789062 4.26367188 C-5.54155273 4.27817383 -5.54155273 4.27817383 -6.76953125 4.29296875 C-7.87711792 4.31653442 -7.87711792 4.31653442 -9.00708008 4.34057617 C-11.52230522 3.91074167 -12.39441516 2.92536938 -14 1 C-13.07316406 1.01160156 -12.14632813 1.02320313 -11.19140625 1.03515625 C-9.39509766 1.04869141 -9.39509766 1.04869141 -7.5625 1.0625 C-5.77005859 1.07990234 -5.77005859 1.07990234 -3.94140625 1.09765625 C-1.11126659 1.33901792 -1.11126659 1.33901792 0 0 Z " fill="#675897" transform="translate(512,773)"/>
<path d="M0 0 C0.66 0.33 1.32 0.66 2 1 C1.50371094 1.73863281 1.00742188 2.47726562 0.49609375 3.23828125 C-4.09907116 10.10051044 -8.59803164 17.01187523 -13 24 C-13.6875 22.32421875 -13.6875 22.32421875 -14 20 C-12.8125 17.51953125 -12.8125 17.51953125 -11 14.8125 C-10.35933594 13.8534375 -9.71867188 12.894375 -9.05859375 11.90625 C-6.17062149 7.82911269 -3.14999256 3.87765042 0 0 Z " fill="#4E3E7C" transform="translate(223,309)"/>
<path d="M0 0 C5.069286 0.32397692 8.68098446 3.10744223 12.75 5.875 C13.43449219 6.32230469 14.11898437 6.76960937 14.82421875 7.23046875 C15.47519531 7.66746094 16.12617187 8.10445312 16.796875 8.5546875 C17.68391113 9.14999268 17.68391113 9.14999268 18.58886719 9.75732422 C20 11 20 11 21 14 C16.64888409 12.50354144 13.13983562 10.16704499 9.4375 7.5 C4.43181409 3.89855851 4.43181409 3.89855851 -1 1 C-0.67 0.67 -0.34 0.34 0 0 Z " fill="#544483" transform="translate(701,216)"/>
<path d="M0 0 C0.33 0.66 0.66 1.32 1 2 C1.85078125 1.75830078 1.85078125 1.75830078 2.71875 1.51171875 C5.04534179 0.98982915 7.118605 0.83288866 9.5 0.8125 C10.2528125 0.79832031 11.005625 0.78414062 11.78125 0.76953125 C14.24864173 1.02582722 15.86356256 1.77154847 18 3 C15.69990227 5.30009773 10.15209334 4.18537365 7.0625 4.1875 C5.66354492 4.20586914 5.66354492 4.20586914 4.23632812 4.22460938 C3.34494141 4.22654297 2.45355469 4.22847656 1.53515625 4.23046875 C0.714104 4.23457764 -0.10694824 4.23868652 -0.95288086 4.24291992 C-3 4 -3 4 -5 2 C-3.35 2 -1.7 2 0 2 C0 1.34 0 0.68 0 0 Z " fill="#503F83" transform="translate(568,773)"/>
<path d="M0 0 C0.58644287 0.20141602 1.17288574 0.40283203 1.77709961 0.61035156 C-1.50670641 2.64417838 -4.80111311 4.66014718 -8.09790039 6.67285156 C-9.03504883 7.25357422 -9.97219727 7.83429687 -10.93774414 8.43261719 C-11.83364258 8.97724609 -12.72954102 9.521875 -13.65258789 10.08300781 C-14.48000488 10.590979 -15.30742187 11.0989502 -16.15991211 11.62231445 C-16.84069824 11.9483667 -17.52148438 12.27441895 -18.22290039 12.61035156 C-18.88290039 12.28035156 -19.54290039 11.95035156 -20.22290039 11.61035156 C-17.11693781 8.33272039 -13.62186338 6.19239139 -9.78540039 3.86035156 C-9.11702148 3.43625 -8.44864258 3.01214844 -7.76000977 2.57519531 C-2.73911662 -0.4801351 -2.73911662 -0.4801351 0 0 Z " fill="#554485" transform="translate(462.222900390625,585.3896484375)"/>
<path d="M0 0 C3.18706942 1.43561686 5.62169105 3.20266329 8.25 5.5 C8.95640625 6.1084375 9.6628125 6.716875 10.390625 7.34375 C12 9 12 9 12 11 C12.61875 11.268125 13.2375 11.53625 13.875 11.8125 C16 13 16 13 18 16 C14.86967299 15.4149477 13.13162507 14.53832576 10.80078125 12.3828125 C10.23166016 11.85816406 9.66253906 11.33351563 9.07617188 10.79296875 C8.49416016 10.24253906 7.91214844 9.69210937 7.3125 9.125 C6.71888672 8.58230469 6.12527344 8.03960938 5.51367188 7.48046875 C1.13082598 3.39247794 1.13082598 3.39247794 0 0 Z " fill="#564584" transform="translate(269,766)"/>
<path d="M0 0 C4.97357688 1.7342733 9.31498953 4.43327957 13.8125 7.125 C14.60076172 7.59292969 15.38902344 8.06085938 16.20117188 8.54296875 C18.13602454 9.69215397 20.06887228 10.84457003 22 12 C19.60575952 12.85601884 18.41740135 13.15804864 16.0012207 12.24316406 C15.31632568 11.83807617 14.63143066 11.43298828 13.92578125 11.015625 C13.17619141 10.57476562 12.42660156 10.13390625 11.65429688 9.6796875 C10.88150391 9.20789063 10.10871094 8.73609375 9.3125 8.25 C8.52810547 7.79367187 7.74371094 7.33734375 6.93554688 6.8671875 C1.1320394 3.39611821 1.1320394 3.39611821 0 0 Z " fill="#59488A" transform="translate(510,344)"/>
<path d="M0 0 C2.81191561 2.81191561 3.53516103 6.16519078 4.6875 9.875 C4.92533203 10.59558594 5.16316406 11.31617188 5.40820312 12.05859375 C6.58394389 15.80303502 7.1851875 18.25823079 6 22 C6 21.34 6 20.68 6 20 C5.34 20 4.68 20 4 20 C-0.59225513 6.3667426 -0.59225513 6.3667426 0 0 Z " fill="#524181" transform="translate(174,607)"/>
<path d="M0 0 C4.6393176 1.63952583 8.63855858 4.06871052 12.8125 6.625 C13.50537109 7.04523438 14.19824219 7.46546875 14.91210938 7.8984375 C16.61010748 8.9289467 18.30533614 9.96401681 20 11 C17.73003347 11.78156126 16.47733572 12.174884 14.18481445 11.33496094 C13.5837085 10.97176758 12.98260254 10.60857422 12.36328125 10.234375 C11.70392578 9.83863281 11.04457031 9.44289063 10.36523438 9.03515625 C9.68783203 8.61105469 9.01042969 8.18695313 8.3125 7.75 C7.62349609 7.34136719 6.93449219 6.93273437 6.22460938 6.51171875 C1.13244584 3.39733751 1.13244584 3.39733751 0 0 Z " fill="#584688" transform="translate(413,287)"/>
<path d="M0 0 C4.01100495 0.55837656 6.1210197 2.57028039 9.0625 5.25 C9.91972656 6.01828125 10.77695312 6.7865625 11.66015625 7.578125 C13.92076961 9.91799192 15.45804533 12.14864775 17 15 C13.81293058 13.56438314 11.37830895 11.79733671 8.75 9.5 C7.69039062 8.58734375 7.69039062 8.58734375 6.609375 7.65625 C5 6 5 6 5 4 C4.360625 3.71125 3.72125 3.4225 3.0625 3.125 C1 2 1 2 0 0 Z " fill="#514080" transform="translate(738,243)"/>
<path d="M0 0 C0.33 0 0.66 0 1 0 C0.67 7.26 0.34 14.52 0 22 C-2.54152079 19.45847921 -2.26060808 17.80239017 -2.2734375 14.33203125 C-2.26570313 13.60371094 -2.25796875 12.87539063 -2.25 12.125 C-2.25773437 11.40441406 -2.26546875 10.68382812 -2.2734375 9.94140625 C-2.25945445 6.14500931 -2.12233599 3.21719185 0 0 Z " fill="#513F84" transform="translate(340,672)"/>
<path d="M0 0 C0.66 0.33 1.32 0.66 2 1 C0.25224498 3.08525254 -1.49810427 5.16823077 -3.25 7.25 C-3.74113281 7.83652344 -4.23226562 8.42304688 -4.73828125 9.02734375 C-7.37497032 12.15621479 -10.0470322 15.15952621 -13 18 C-12.41671196 13.83653022 -10.12178134 11.1636408 -7.625 7.875 C-6.83351562 6.82054687 -6.04203125 5.76609375 -5.2265625 4.6796875 C-3 2 -3 2 0 0 Z " fill="#50407E" transform="translate(242,285)"/>
<path d="M0 0 C4.59940465 0.56544405 8.17441931 1.80338302 12.3125 3.875 C13.36050781 4.38804687 14.40851562 4.90109375 15.48828125 5.4296875 C18 7 18 7 19 10 C14.37324343 8.6077541 10.35313769 6.70479016 6.125 4.375 C4.97257813 3.74335938 3.82015625 3.11171875 2.6328125 2.4609375 C1.32957031 1.73777344 1.32957031 1.73777344 0 1 C0 0.67 0 0.34 0 0 Z " fill="#534383" transform="translate(660,193)"/>
<path d="M0 0 C4.76551013 1.37605916 8.7248553 3.46778066 12.875 6.125 C13.46796875 6.49753906 14.0609375 6.87007813 14.671875 7.25390625 C16.1181343 8.16365 17.55958046 9.08103798 19 10 C17.4140625 10.734375 17.4140625 10.734375 15 11 C12.62993013 9.84129917 10.56770575 8.67917428 8.375 7.25 C7.78976562 6.8890625 7.20453125 6.528125 6.6015625 6.15625 C3.66651832 4.29828625 1.9532013 2.92980195 0 0 Z " fill="#594788" transform="translate(438,302)"/>
<path d="M0 0 C5.77759884 -0.12036664 11.27959989 0.1679418 17 1 C16.67 1.66 16.34 2.32 16 3 C10.72 3 5.44 3 0 3 C0 2.01 0 1.02 0 0 Z " fill="#504084" transform="translate(412,774)"/>
<path d="M0 0 C0.33 0 0.66 0 1 0 C1.10920422 7.74136601 0.97159933 15.31395526 0 23 C-0.33 23 -0.66 23 -1 23 C-1.33 20.36 -1.66 17.72 -2 15 C-2.33 15 -2.66 15 -3 15 C-3 12.03 -3 9.06 -3 6 C-2.01 7.485 -2.01 7.485 -1 9 C-0.67 6.03 -0.34 3.06 0 0 Z " fill="#71609F" transform="translate(863,530)"/>
<path d="M0 0 C0.99 0.33 1.98 0.66 3 1 C4.16796875 3.51171875 4.16796875 3.51171875 5.1875 6.6875 C5.53167969 7.72261719 5.87585938 8.75773437 6.23046875 9.82421875 C7.00252624 13.01042557 7.14191051 15.73605818 7 19 C5 18 5 18 3.96484375 15.234375 C3.45630859 13.50960938 3.45630859 13.50960938 2.9375 11.75 C2.59589844 10.61046875 2.25429688 9.4709375 1.90234375 8.296875 C1.14702656 5.53718795 0.5128883 2.8129544 0 0 Z " fill="#514280" transform="translate(841,387)"/>
<path d="M0 0 C4.00523058 1.33507686 5.15889419 3.87337777 7.25 7.3125 C7.81460938 8.18551758 7.81460938 8.18551758 8.390625 9.07617188 C11.09726102 13.46947998 11.09726102 13.46947998 10.59667969 16.19995117 C10.39977539 16.79396729 10.20287109 17.3879834 10 18 C8.32605999 15.37957157 6.6621165 12.75294095 5 10.125 C4.52304687 9.37863281 4.04609375 8.63226563 3.5546875 7.86328125 C3.10351562 7.14785156 2.65234375 6.43242187 2.1875 5.6953125 C1.76855469 5.03547363 1.34960938 4.37563477 0.91796875 3.69580078 C0 2 0 2 0 0 Z " fill="#4E3E7D" transform="translate(808,322)"/>
<path d="M0 0 C3.86912817 3.36031132 4.31261017 7.08555774 5 12 C5.13786197 14.69497906 5.09822447 17.29882714 5 20 C2.94550007 16.9182501 2.25524191 14.6904243 1.375 11.125 C0.98441406 9.58199219 0.98441406 9.58199219 0.5859375 8.0078125 C0.04698884 5.24120939 -0.11394368 2.80715804 0 0 Z " fill="#4B3C7B" transform="translate(852,420)"/>
<path d="M0 0 C4.04301175 1.48518799 7.61146256 3.42877998 11.3125 5.625 C12.38113281 6.25664062 13.44976563 6.88828125 14.55078125 7.5390625 C15.76314453 8.26222656 15.76314453 8.26222656 17 9 C15.38671875 9.703125 15.38671875 9.703125 13 10 C10.01953125 8.671875 10.01953125 8.671875 6.8125 6.75 C5.74644531 6.12609375 4.68039062 5.5021875 3.58203125 4.859375 C1 3 1 3 0 0 Z " fill="#554385" transform="translate(578,384)"/>
<path d="M0 0 C-4.76230372 4.05677724 -9.21781456 4.12947457 -15.3125 4.0625 C-16.38113281 4.05347656 -17.44976563 4.04445313 -18.55078125 4.03515625 C-19.35902344 4.02355469 -20.16726563 4.01195312 -21 4 C-21 3.67 -21 3.34 -21 3 C-18.43850372 2.49432271 -15.87600535 1.99529868 -13.3125 1.5 C-12.59126953 1.35691406 -11.87003906 1.21382812 -11.12695312 1.06640625 C-7.36158641 0.34428113 -3.85526187 -0.1824976 0 0 Z " fill="#4D3B7C" transform="translate(585,855)"/>
<path d="M0 0 C4.08055151 0.50547372 5.66272295 2.50088882 8.25 5.5625 C8.95640625 6.38878906 9.6628125 7.21507812 10.390625 8.06640625 C10.92171875 8.70449219 11.4528125 9.34257812 12 10 C11.67 10.99 11.34 11.98 11 13 C10.37351562 12.28972656 9.74703125 11.57945312 9.1015625 10.84765625 C8.28429687 9.92855469 7.46703125 9.00945312 6.625 8.0625 C5.81289063 7.14597656 5.00078125 6.22945313 4.1640625 5.28515625 C2.21290653 2.96398605 2.21290653 2.96398605 0 2 C0 1.34 0 0.68 0 0 Z " fill="#544382" transform="translate(761,264)"/>
<path d="M0 0 C0.99 0.33 1.98 0.66 3 1 C-0.63 4.3 -4.26 7.6 -8 11 C-8.66 10.67 -9.32 10.34 -10 10 C-8.90033225 8.70450101 -7.79508199 7.41373929 -6.6875 6.125 C-6.07261719 5.40570313 -5.45773437 4.68640625 -4.82421875 3.9453125 C-3 2 -3 2 0 0 Z " fill="#504080" transform="translate(283,244)"/>
<path d="M0 0 C3.63 0.33 7.26 0.66 11 1 C8.33333333 3 5.66666667 5 3 7 C2.34 5.68 1.68 4.36 1 3 C-0.98 3 -2.96 3 -5 3 C-5 2.67 -5 2.34 -5 2 C-3.35 1.67 -1.7 1.34 0 1 C0 0.67 0 0.34 0 0 Z " fill="#72619F" transform="translate(456,857)"/>
<path d="M0 0 C-2.119212 1.36405618 -4.24448118 2.71631775 -6.375 4.0625 C-6.97828125 4.45244141 -7.5815625 4.84238281 -8.203125 5.24414062 C-9.76492557 6.22460432 -11.37992214 7.11916075 -13 8 C-13.66 7.67 -14.32 7.34 -15 7 C-11.06592484 2.59383582 -6.13951022 -2.08689492 0 0 Z " fill="#554486" transform="translate(624,492)"/>
<path d="M0 0 C-2.119212 1.36405618 -4.24448118 2.71631775 -6.375 4.0625 C-6.97828125 4.45244141 -7.5815625 4.84238281 -8.203125 5.24414062 C-9.76492557 6.22460432 -11.37992214 7.11916075 -13 8 C-13.66 7.67 -14.32 7.34 -15 7 C-11.06592484 2.59383582 -6.13951022 -2.08689492 0 0 Z " fill="#554586" transform="translate(522,552)"/>
<path d="M0 0 C0 0.33 0 0.66 0 1 C-6.74233419 1.12910853 -13.30386804 0.797837 -20 0 C-13.55169896 -3.66810804 -6.73387256 -2.29238215 0 0 Z " fill="#4F3E7F" transform="translate(562,162)"/>
<path d="M0 0 C2.19050021 0.09017996 4.378466 0.24666208 6.5625 0.4375 C7.76003906 0.53933594 8.95757813 0.64117188 10.19140625 0.74609375 C11.11824219 0.82988281 12.04507813 0.91367187 13 1 C13 1.33 13 1.66 13 2 C5.64206267 2.91160286 -1.58982977 3.11459026 -9 3 C-9 2.67 -9 2.34 -9 2 C-6.94921875 1.77213542 -4.8984375 1.54427083 -2.84765625 1.31640625 C-0.98859771 1.18113386 -0.98859771 1.18113386 0 0 Z " fill="#7362A0" transform="translate(536,861)"/>
<path d="M0 0 C0 0.66 0 1.32 0 2 C-1.55575978 2.84584998 -3.1199612 3.67618399 -4.6875 4.5 C-5.99267578 5.19609375 -5.99267578 5.19609375 -7.32421875 5.90625 C-10.11788829 7.04818792 -12.01629113 7.21504208 -15 7 C-11.19791273 3.69383716 -5.16418515 0 0 0 Z " fill="#544382" transform="translate(664,828)"/>
<path d="M0 0 C0.66 0.33 1.32 0.66 2 1 C1.278125 1.680625 0.55625 2.36125 -0.1875 3.0625 C-3.23455693 6.09214518 -5.57207954 9.46217304 -8 13 C-8.671875 11.2265625 -8.671875 11.2265625 -9 9 C-7.890625 7.1484375 -7.890625 7.1484375 -6.25 5.375 C-5.71890625 4.78460938 -5.1878125 4.19421875 -4.640625 3.5859375 C-3 2 -3 2 0 0 Z " fill="#554283" transform="translate(380,284)"/>
<path d="M0 0 C0 4.12036206 -1.6993277 5.43252807 -4.3125 8.5625 C-5.11300781 9.53316406 -5.91351563 10.50382812 -6.73828125 11.50390625 C-9 14 -9 14 -12 16 C-10.37921571 12.27131047 -8.02767716 9.42653322 -5.4375 6.3125 C-4.63183594 5.33925781 -3.82617188 4.36601562 -2.99609375 3.36328125 C-1 1 -1 1 0 0 Z " fill="#655697" transform="translate(245,284)"/>
<path d="M0 0 C1.83979073 2.7596861 2.48323221 4.29741882 3.1875 7.4375 C3.36667969 8.19933594 3.54585937 8.96117187 3.73046875 9.74609375 C4.0154963 12.12958496 3.72875415 13.73104204 3 16 C3 15.01 3 14.02 3 13 C2.34 13 1.68 13 1 13 C1 11.68 1 10.36 1 9 C0.34 8.67 -0.32 8.34 -1 8 C-0.67 5.36 -0.34 2.72 0 0 Z " fill="#503F7E" transform="translate(169,587)"/>
<path d="M0 0 C-1.78524649 1.19713017 -3.5784028 2.38247279 -5.375 3.5625 C-6.87160156 4.55443359 -6.87160156 4.55443359 -8.3984375 5.56640625 C-9.25695312 6.03949219 -10.11546875 6.51257813 -11 7 C-11.66 6.67 -12.32 6.34 -13 6 C-5.74729569 -1.78994167 -5.74729569 -1.78994167 0 0 Z " fill="#524385" transform="translate(600,506)"/>
<path d="M0 0 C0.66 0.33 1.32 0.66 2 1 C1.09522263 2.46573934 0.17565859 3.92235756 -0.75 5.375 C-1.26046875 6.18710937 -1.7709375 6.99921875 -2.296875 7.8359375 C-4.0673335 10.08555679 -5.36907419 10.95906848 -8 12 C-6.59023295 8.96147295 -4.91129772 6.4060405 -2.875 3.75 C-2.06675781 2.69039063 -2.06675781 2.69039063 -1.2421875 1.609375 C-0.83226562 1.07828125 -0.42234375 0.5471875 0 0 Z " fill="#534482" transform="translate(223,309)"/>
<path d="M0 0 C1.66519519 0.34060811 3.33157466 0.67558396 5 1 C5 1.33 5 1.66 5 2 C-0.445 2.495 -0.445 2.495 -6 3 C-6 2.67 -6 2.34 -6 2 C-8.31 1.67 -10.62 1.34 -13 1 C-13 0.67 -13 0.34 -13 0 C-11.58456585 -0.19658808 -10.16755969 -0.38187546 -8.75 -0.5625 C-7.96109375 -0.66691406 -7.1721875 -0.77132812 -6.359375 -0.87890625 C-3.96772962 -1.00165626 -2.27838337 -0.68351501 0 0 Z " fill="#7868A4" transform="translate(478,861)"/>
<path d="M0 0 C4.62 0 9.24 0 14 0 C14 0.33 14 0.66 14 1 C8.54538831 2.38529821 3.63281599 3.2396943 -2 3 C-1.34 2.67 -0.68 2.34 0 2 C0 1.34 0 0.68 0 0 Z " fill="#695A99" transform="translate(603,774)"/>
<path d="M0 0 C4.29 0 8.58 0 13 0 C12.67 0.99 12.34 1.98 12 3 C4.5 3.375 4.5 3.375 0 0 Z " fill="#685897" transform="translate(424,774)"/>
<path d="M0 0 C2.93200474 2.85276137 5.64315404 5.65079784 8 9 C7.67 9.66 7.34 10.32 7 11 C4.35247996 8.42215154 2.05567935 6.08351902 0 3 C0 2.01 0 1.02 0 0 Z " fill="#524180" transform="translate(225,714)"/>
<path d="M0 0 C1.32 0.33 2.64 0.66 4 1 C-0.455 4.465 -0.455 4.465 -5 8 C-5.66 7.67 -6.32 7.34 -7 7 C-4.66666667 4.66666667 -2.33333333 2.33333333 0 0 Z " fill="#4F3F7E" transform="translate(309,223)"/>
<path d="M0 0 C-1.43011973 0.86646667 -2.86940619 1.71781829 -4.3125 2.5625 C-5.51326172 3.27599609 -5.51326172 3.27599609 -6.73828125 4.00390625 C-9 5 -9 5 -12 4 C-5.03867403 -1.46961326 -5.03867403 -1.46961326 0 0 Z " fill="#544382" transform="translate(360,196)"/>
<path d="M0 0 C0.66 0.66 1.32 1.32 2 2 C4.43252661 2.46162427 4.43252661 2.46162427 7.125 2.625 C8.03507813 2.69976562 8.94515625 2.77453125 9.8828125 2.8515625 C10.93082031 2.92503906 10.93082031 2.92503906 12 3 C12 3.33 12 3.66 12 4 C4.58982977 4.11459026 -2.64206267 3.91160286 -10 3 C-10 2.67 -10 2.34 -10 2 C-6.7 2 -3.4 2 0 2 C0 1.34 0 0.68 0 0 Z " fill="#8879AD" transform="translate(535,156)"/>
<path d="M0 0 C1.25127906 3.54667178 0.72285053 5.72253438 -0.4375 9.25 C-0.72496094 10.14203125 -1.01242188 11.0340625 -1.30859375 11.953125 C-1.53675781 12.62859375 -1.76492187 13.3040625 -2 14 C-2.33 14 -2.66 14 -3 14 C-3.29341888 8.32723489 -3.00559652 5.00932754 0 0 Z " fill="#4C3C7A" transform="translate(174,410)"/>
<path d="M0 0 C4.30764815 1.56641751 8.06171464 3.68336156 12 6 C10.4375 6.75 10.4375 6.75 8 7 C5.45280141 5.97667131 3.13666413 4.72727704 1 3 C0.67 2.01 0.34 1.02 0 0 Z " fill="#554386" transform="translate(537,360)"/>
<path d="M0 0 C4.30764815 1.56641751 8.06171464 3.68336156 12 6 C10.4375 6.75 10.4375 6.75 8 7 C5.45280141 5.97667131 3.13666413 4.72727704 1 3 C0.67 2.01 0.34 1.02 0 0 Z " fill="#524182" transform="translate(493,334)"/>
<path d="M0 0 C0.33 0.99 0.66 1.98 1 3 C0.00390625 4.82421875 0.00390625 4.82421875 -1.4375 6.6875 C-1.91058594 7.31011719 -2.38367188 7.93273437 -2.87109375 8.57421875 C-3.24363281 9.04472656 -3.61617187 9.51523437 -4 10 C-4.99 9.67 -5.98 9.34 -7 9 C-4.69 6.03 -2.38 3.06 0 0 Z " fill="#534380" transform="translate(789,725)"/>
<path d="M0 0 C0.33 0 0.66 0 1 0 C0.49202991 4.3177458 -0.19682779 8.03302114 -2 12 C-2.66 12 -3.32 12 -4 12 C-3.33501617 7.61110675 -1.81242323 4.0188515 0 0 Z " fill="#4F3D7E" transform="translate(837,642)"/>
<path d="M0 0 C3 2 3 2 4 5 C4.03954234 7.33299825 4.04401732 9.66708189 4 12 C1.57869669 9.57869669 1.47159496 8.19888623 0.875 4.875 C0.70742188 3.96492188 0.53984375 3.05484375 0.3671875 2.1171875 C0.24601563 1.41851562 0.12484375 0.71984375 0 0 Z " fill="#4C3C7A" transform="translate(848,407)"/>
<path d="M0 0 C0.33 0.66 0.66 1.32 1 2 C0.00390625 4.1640625 0.00390625 4.1640625 -1.4375 6.625 C-1.91058594 7.44226563 -2.38367188 8.25953125 -2.87109375 9.1015625 C-3.24363281 9.72804688 -3.61617187 10.35453125 -4 11 C-5.04528847 7.76591956 -5.06464549 7.15699619 -3.6875 3.8125 C-2 1 -2 1 0 0 Z " fill="#4F3E7D" transform="translate(202,343)"/>
<path d="M0 0 C-2.34914492 2.34914492 -3.95679446 2.73140357 -7.125 3.625 C-8.49011719 4.01558594 -8.49011719 4.01558594 -9.8828125 4.4140625 C-10.58148438 4.60742188 -11.28015625 4.80078125 -12 5 C-11.67 4.01 -11.34 3.02 -11 2 C-7.24092359 0.37676246 -4.07913787 -0.23994929 0 0 Z " fill="#4C3C7C" transform="translate(395,180)"/>
<path d="M0 0 C0.75 1.625 0.75 1.625 1 4 C-0.8125 7.25 -0.8125 7.25 -3 10 C-3.66 10 -4.32 10 -5 10 C-3.66511872 6.40608886 -2.03977277 3.24509304 0 0 Z " fill="#514180" transform="translate(815,687)"/>
<path d="M0 0 C-1.28524261 0.86380259 -2.57842419 1.71580369 -3.875 2.5625 C-4.59429687 3.03816406 -5.31359375 3.51382813 -6.0546875 4.00390625 C-6.69664062 4.33261719 -7.33859375 4.66132812 -8 5 C-8.66 4.67 -9.32 4.34 -10 4 C-4.75 -1.425 -4.75 -1.425 0 0 Z " fill="#554485" transform="translate(493,569)"/>
<path d="M0 0 C-1.28524261 0.86380259 -2.57842419 1.71580369 -3.875 2.5625 C-4.59429688 3.03816406 -5.31359375 3.51382813 -6.0546875 4.00390625 C-6.69664062 4.33261719 -7.33859375 4.66132812 -8 5 C-8.66 4.67 -9.32 4.34 -10 4 C-4.75 -1.425 -4.75 -1.425 0 0 Z " fill="#534384" transform="translate(551,535)"/>
<path d="M0 0 C3.46941546 0.45822468 6.67395049 0.89131683 10 2 C10.33 2.99 10.66 3.98 11 5 C9.53932801 4.54917531 8.08151968 4.08906463 6.625 3.625 C5.81289063 3.36976563 5.00078125 3.11453125 4.1640625 2.8515625 C2 2 2 2 0 0 Z " fill="#4E3C7D" transform="translate(648,188)"/>
<path d="M0 0 C-1.28524261 0.86380259 -2.57842419 1.71580369 -3.875 2.5625 C-4.59429688 3.03816406 -5.31359375 3.51382812 -6.0546875 4.00390625 C-6.69664062 4.33261719 -7.33859375 4.66132813 -8 5 C-8.66 4.67 -9.32 4.34 -10 4 C-4.75 -1.425 -4.75 -1.425 0 0 Z " fill="#554586" transform="translate(648,478)"/>
<path d="M0 0 C3.99500618 1.3697164 6.80009492 3.25722422 10 6 C6.38238619 5.67112602 4.44334967 5.37334709 1.625 3 C0 1 0 1 0 0 Z " fill="#534183" transform="translate(641,421)"/>
<path d="M0 0 C3.59391114 1.33488128 6.75490696 2.96022723 10 5 C8.3125 5.6875 8.3125 5.6875 6 6 C3.3125 4.75 3.3125 4.75 1 3 C0.67 2.01 0.34 1.02 0 0 Z " fill="#544283" transform="translate(464,317)"/>
<path d="M0 0 C1.48199902 0.44909061 2.96055236 0.90956564 4.4375 1.375 C5.26121094 1.63023437 6.08492188 1.88546875 6.93359375 2.1484375 C9 3 9 3 10 5 C6.87709365 4.51421457 4.00419641 4.0013988 1 3 C0.67 2.01 0.34 1.02 0 0 Z " fill="#523F7F" transform="translate(362,830)"/>
<path d="M0 0 C3.36591866 1.44253657 5.51047079 3.33264727 8 6 C7.67 6.66 7.34 7.32 7 8 C3.83282717 6.41641358 2.26731682 5.54736301 0.6875 2.3125 C0.460625 1.549375 0.23375 0.78625 0 0 Z " fill="#4A397A" transform="translate(257,754)"/>
<path d="M0 0 C3.99500618 1.3697164 6.80009492 3.25722422 10 6 C6.38238619 5.67112602 4.44334967 5.37334709 1.625 3 C0 1 0 1 0 0 Z " fill="#554385" transform="translate(624,411)"/>
<path d="M0 0 C2.97 1.65 5.94 3.3 9 5 C5 6 5 6 2.25 4.75 C1.5075 4.1725 0.765 3.595 0 3 C0 2.01 0 1.02 0 0 Z " fill="#574587" transform="translate(608,401)"/>
<path d="M0 0 C3.99500618 1.3697164 6.80009492 3.25722422 10 6 C6.38238619 5.67112602 4.44334967 5.37334709 1.625 3 C0 1 0 1 0 0 Z " fill="#544284" transform="translate(522,351)"/>
<path d="M0 0 C3.59391114 1.33488128 6.75490696 2.96022723 10 5 C8.3125 5.6875 8.3125 5.6875 6 6 C3.3125 4.75 3.3125 4.75 1 3 C0.67 2.01 0.34 1.02 0 0 Z " fill="#534183" transform="translate(447,307)"/>
<path d="M0 0 C0.99 0.33 1.98 0.66 3 1 C1.38405168 3.04119788 -0.2856382 5.04072937 -2 7 C-2.66 7 -3.32 7 -4 7 C-3.43628586 3.73045798 -2.50037734 2.17424117 0 0 Z " fill="#534381" transform="translate(267,258)"/>
<path d="M0 0 C1.32 0.33 2.64 0.66 4 1 C0.535 3.97 0.535 3.97 -3 7 C-3.66 6.67 -4.32 6.34 -5 6 C-3.35 4.02 -1.7 2.04 0 0 Z " fill="#4C3C7C" transform="translate(297,232)"/>
<path d="M0 0 C-3.68734758 2.45823172 -6.69699971 3.01242616 -11 4 C-10.67 3.01 -10.34 2.02 -10 1 C-6.52674819 -0.1577506 -3.63932552 -0.06866652 0 0 Z " fill="#4D3D7B" transform="translate(410,175)"/>
<path d="M0 0 C-1 3 -1 3 -2.8125 4.25 C-5.33943414 5.11637742 -6.52221994 4.88492145 -9 4 C-2.25 0 -2.25 0 0 0 Z " fill="#544382" transform="translate(692,813)"/>
<path d="M0 0 C0.66 0 1.32 0 2 0 C2 0.66 2 1.32 2 2 C2.61875 2.268125 3.2375 2.53625 3.875 2.8125 C6 4 6 4 8 7 C4.21388773 6.45912682 2.44599233 4.88277668 0 2 C0 1.34 0 0.68 0 0 Z " fill="#503E7D" transform="translate(279,775)"/>
<path d="M0 0 C2.31 0 4.62 0 7 0 C7.33 0.99 7.66 1.98 8 3 C5.36 3 2.72 3 0 3 C0 2.01 0 1.02 0 0 Z " fill="#503F83" transform="translate(640,774)"/>
<path d="M0 0 C2.96404505 2.80804268 5.44499019 5.18315774 7 9 C3.46352496 7.32482761 2.2088437 6.50719183 0.6875 2.8125 C0.460625 1.884375 0.23375 0.95625 0 0 Z " fill="#4E3D7C" transform="translate(249,744)"/>
<path d="M0 0 C4.875 4.625 4.875 4.625 6 8 C3.53199953 6.84826645 1.95216435 5.95216435 0 4 C0 2.68 0 1.36 0 0 Z " fill="#50407E" transform="translate(235,727)"/>
<path d="M0 0 C0.33 0.99 0.66 1.98 1 3 C-0.8125 6.1875 -0.8125 6.1875 -3 9 C-3.66 9 -4.32 9 -5 9 C-3.7508258 5.54074837 -2.32472205 2.85306797 0 0 Z " fill="#50407F" transform="translate(805,703)"/>
<path d="M0 0 C3.08089673 2.77280706 4.68775452 5.06326356 6 9 C3.5067466 8.00269864 2.22532561 7.34925469 0.75 5.0625 C0 3 0 3 0 0 Z " fill="#4D3C7C" transform="translate(217,702)"/>
<path d="M0 0 C0.33 0 0.66 0 1 0 C0.67 2.97 0.34 5.94 0 9 C-0.99 9.33 -1.98 9.66 -3 10 C-2.01 6.7 -1.02 3.4 0 0 Z " fill="#503E80" transform="translate(846,618)"/>
<path d="M0 0 C3.3 0.99 6.6 1.98 10 3 C10 3.33 10 3.66 10 4 C7.25 4.25 7.25 4.25 4 4 C1.625 2 1.625 2 0 0 Z " fill="#4D3B7C" transform="translate(386,840)"/>
<path d="M0 0 C0.33 0.99 0.66 1.98 1 3 C-3.75 6 -3.75 6 -6 6 C-4.75453595 2.26360784 -3.36595047 1.81243487 0 0 Z " fill="#574483" transform="translate(707,802)"/>
<path d="M0 0 C3.55780196 0.60990891 6.6828589 1.5783681 10 3 C10 3.33 10 3.66 10 4 C7.25 4.25 7.25 4.25 4 4 C1.625 2 1.625 2 0 0 Z " fill="#59478A" transform="translate(376,616)"/>
<path d="M0 0 C0.33 0 0.66 0 1 0 C1 1.65 1 3.3 1 5 C1.66 5 2.32 5 3 5 C2.67 7.97 2.34 10.94 2 14 C1.67 14 1.34 14 1 14 C0.67 9.38 0.34 4.76 0 0 Z " fill="#74649F" transform="translate(163,557)"/>
<path d="M0 0 C2.60018816 3.90028225 2.15085514 7.47434569 2 12 C0.4375 10.5 0.4375 10.5 -1 8 C-0.96823234 5.22562457 -0.50364148 2.74713533 0 0 Z " fill="#685997" transform="translate(862,470)"/>
<path d="M0 0 C0.33 0.66 0.66 1.32 1 2 C1.66 2.33 2.32 2.66 3 3 C1.35 4.65 -0.3 6.3 -2 8 C-2.66 7.67 -3.32 7.34 -4 7 C-3.505 6.566875 -3.01 6.13375 -2.5 5.6875 C-0.66781808 4.00259517 -0.66781808 4.00259517 -1 1 C-0.67 0.67 -0.34 0.34 0 0 Z " fill="#685998" transform="translate(262,263)"/>
<path d="M0 0 C2.64 0 5.28 0 8 0 C8 0.66 8 1.32 8 2 C8.66 2.33 9.32 2.66 10 3 C2.25 2.25 2.25 2.25 0 0 Z " fill="#4B397B" transform="translate(596,170)"/>
<path d="M0 0 C0.33 0.99 0.66 1.98 1 3 C-0.28965176 4.37562854 -1.62689293 5.70766393 -3 7 C-3.66 7 -4.32 7 -5 7 C-3.70700306 4.11562221 -2.34058637 2.12780579 0 0 Z " fill="#4F3E7F" transform="translate(775,742)"/>
<path d="M0 0 C2.50298434 2.93828597 3.46930939 5.17902761 4 9 C3.34 9 2.68 9 2 9 C0.14223235 5.86501708 -0.20140476 3.62528568 0 0 Z " fill="#524180" transform="translate(193,658)"/>
<path d="M0 0 C0.66 0.33 1.32 0.66 2 1 C-0.46153846 5.8 -0.46153846 5.8 -3.1875 6.8125 C-3.785625 6.874375 -4.38375 6.93625 -5 7 C-4.01 6.01 -3.02 5.02 -2 4 C-2.33 3.34 -2.66 2.68 -3 2 C-2.01 1.34 -1.02 0.68 0 0 Z " fill="#68589A" transform="translate(601,502)"/>
<path d="M0 0 C1.65 0.99 3.3 1.98 5 3 C4.67 4.32 4.34 5.64 4 7 C2 6 2 6 0.875 2.9375 C0.58625 1.968125 0.2975 0.99875 0 0 Z " fill="#4F3F7F" transform="translate(792,299)"/>
<path d="M0 0 C2.26171875 0.14453125 2.26171875 0.14453125 4.6875 0.8125 C5.49574219 1.02519531 6.30398438 1.23789063 7.13671875 1.45703125 C8.05904297 1.72580078 8.05904297 1.72580078 9 2 C9 2.33 9 2.66 9 3 C5.04 3 1.08 3 -3 3 C-2.01 2.01 -1.02 1.02 0 0 Z " fill="#72619C" transform="translate(516,156)"/>
<path d="M0 0 C0.66 0.66 1.32 1.32 2 2 C1.01 2 0.02 2 -1 2 C-0.67 1.34 -0.34 0.68 0 0 Z " fill="#705F97" transform="translate(273,773)"/>
<path d="M0 0 C0.33 0 0.66 0 1 0 C1 1.65 1 3.3 1 5 C0.67 5 0.34 5 0 5 C0 3.35 0 1.7 0 0 Z " fill="#7462A0" transform="translate(681,675)"/>
<path d="M0 0 C0.33 0.99 0.66 1.98 1 3 C0.34 2.67 -0.32 2.34 -1 2 C-0.67 1.34 -0.34 0.68 0 0 Z " fill="#7362A0" transform="translate(681,748)"/>
<path d="M0 0 C0.99 0.33 1.98 0.66 3 1 C2.01 1.33 1.02 1.66 0 2 C0 1.34 0 0.68 0 0 Z " fill="#7464A1" transform="translate(644,474)"/>
<path d="M0 0 C0.33 0.66 0.66 1.32 1 2 C0.34 1.67 -0.32 1.34 -1 1 C-0.67 0.67 -0.34 0.34 0 0 Z " fill="#715F97" transform="translate(410,852)"/>
<path d="" fill="#716099" transform="translate(0,0)"/>
<path d="M0 0 C3 1 3 1 3 1 Z " fill="#725E9A" transform="translate(356,831)"/>
<path d="M0 0 C0.66 0.66 1.32 1.32 2 2 C1.34 2 0.68 2 0 2 C0 1.34 0 0.68 0 0 Z " fill="#715E97" transform="translate(337,820)"/>
<path d="M0 0 C0.66 0.66 1.32 1.32 2 2 C1.34 2 0.68 2 0 2 C0 1.34 0 0.68 0 0 Z " fill="#7362A2" transform="translate(632,421)"/>
<path d="" fill="#6F5E97" transform="translate(0,0)"/>
<path d="M0 0 C0.33 0.66 0.66 1.32 1 2 C0.34 1.67 -0.32 1.34 -1 1 C-0.67 0.67 -0.34 0.34 0 0 Z " fill="#715E9E" transform="translate(500,341)"/>
<path d="M0 0 C0.33 0.66 0.66 1.32 1 2 C0.34 1.67 -0.32 1.34 -1 1 C-0.67 0.67 -0.34 0.34 0 0 Z " fill="#726297" transform="translate(325,210)"/>
<path d="M0 0 C0.33 0.66 0.66 1.32 1 2 C0.34 1.67 -0.32 1.34 -1 1 C-0.67 0.67 -0.34 0.34 0 0 Z " fill="#73629A" transform="translate(414,169)"/>
<path d="M0 0 C2 1 2 1 2 1 Z " fill="#73609A" transform="translate(553,863)"/>
<path d="M0 0 C2 1 2 1 2 1 Z " fill="#76649E" transform="translate(467,863)"/>
<path d="M0 0 C2 1 2 1 2 1 Z " fill="#75639D" transform="translate(464,863)"/>
<path d="M0 0 C2 1 2 1 2 1 Z " fill="#6F5E98" transform="translate(370,837)"/>
<path d="" fill="#715C95" transform="translate(0,0)"/>
<path d="" fill="#715D95" transform="translate(0,0)"/>
<path d="M0 0 C2 1 2 1 2 1 Z " fill="#705E96" transform="translate(321,811)"/>
<path d="M0 0 C2 1 2 1 2 1 Z " fill="#6E5E96" transform="translate(300,799)"/>
<path d="M0 0 C2 1 2 1 2 1 Z " fill="#6F5F98" transform="translate(293,791)"/>
<path d="M0 0 C2 1 2 1 2 1 Z " fill="#7766A4" transform="translate(382,772)"/>
<path d="" fill="#7967A5" transform="translate(0,0)"/>
<path d="" fill="#7463A0" transform="translate(0,0)"/>
<path d="" fill="#7563A0" transform="translate(0,0)"/>
<path d="" fill="#71609C" transform="translate(0,0)"/>
<path d="M0 0 C2 1 2 1 2 1 Z " fill="#6D5E97" transform="translate(236,734)"/>
<path d="M0 0 C2 1 2 1 2 1 Z " fill="#716099" transform="translate(224,725)"/>
<path d="M0 0 C2 1 2 1 2 1 Z " fill="#726098" transform="translate(224,721)"/>
<path d="" fill="#716099" transform="translate(0,0)"/>
<path d="M0 0 C2 1 2 1 2 1 Z " fill="#7666A5" transform="translate(632,701)"/>
<path d="M0 0 C2 1 2 1 2 1 Z " fill="#7664A2" transform="translate(350,700)"/>
<path d="M0 0 C2 1 2 1 2 1 Z " fill="#726199" transform="translate(208,695)"/>
<path d="" fill="#726299" transform="translate(0,0)"/>
<path d="" fill="#6D5F99" transform="translate(0,0)"/>
<path d="" fill="#72609A" transform="translate(0,0)"/>
<path d="M0 0 C2 1 2 1 2 1 Z " fill="#7C69A8" transform="translate(581,671)"/>
<path d="" fill="#7968A8" transform="translate(0,0)"/>
<path d="M0 0 C2 1 2 1 2 1 Z " fill="#7464A3" transform="translate(675,670)"/>
<path d="M0 0 C2 1 2 1 2 1 Z " fill="#7C68A8" transform="translate(599,668)"/>
<path d="" fill="#6F6196" transform="translate(0,0)"/>
<path d="" fill="#726199" transform="translate(0,0)"/>
<path d="" fill="#73639C" transform="translate(0,0)"/>
<path d="" fill="#75629B" transform="translate(0,0)"/>
<path d="M0 0 C2 1 2 1 2 1 Z " fill="#716197" transform="translate(853,611)"/>
<path d="" fill="#715E98" transform="translate(0,0)"/>
<path d="M0 0 C2 1 2 1 2 1 Z " fill="#76649F" transform="translate(441,592)"/>
<path d="M0 0 C2 1 2 1 2 1 Z " fill="#7664A1" transform="translate(465,579)"/>
<path d="" fill="#71609D" transform="translate(0,0)"/>
<path d="" fill="#73639C" transform="translate(0,0)"/>
<path d="" fill="#75659D" transform="translate(0,0)"/>
<path d="" fill="#7364A0" transform="translate(0,0)"/>
<path d="M0 0 C2 1 2 1 2 1 Z " fill="#7463A2" transform="translate(632,482)"/>
<path d="M0 0 C2 1 2 1 2 1 Z " fill="#7765A0" transform="translate(640,473)"/>
<path d="" fill="#73629C" transform="translate(0,0)"/>
<path d="" fill="#73619F" transform="translate(0,0)"/>
<path d="M0 0 C2 1 2 1 2 1 Z " fill="#725F9E" transform="translate(650,430)"/>
<path d="M0 0 C2 1 2 1 2 1 Z " fill="#7262A0" transform="translate(634,421)"/>
<path d="" fill="#736298" transform="translate(0,0)"/>
<path d="" fill="#715F9E" transform="translate(0,0)"/>
<path d="" fill="#73649C" transform="translate(0,0)"/>
<path d="" fill="#72619D" transform="translate(0,0)"/>
<path d="M0 0 C2 1 2 1 2 1 Z " fill="#706198" transform="translate(200,336)"/>
<path d="M0 0 C2 1 2 1 2 1 Z " fill="#73619C" transform="translate(480,333)"/>
<path d="" fill="#70609E" transform="translate(0,0)"/>
<path d="M0 0 C2 1 2 1 2 1 Z " fill="#73609F" transform="translate(440,307)"/>
<path d="" fill="#71609F" transform="translate(0,0)"/>
<path d="M0 0 C2 1 2 1 2 1 Z " fill="#6B5C92" transform="translate(798,297)"/>
<path d="M0 0 C2 1 2 1 2 1 Z " fill="#716197" transform="translate(228,297)"/>
<path d="" fill="#72609E" transform="translate(0,0)"/>
<path d="" fill="#6F6196" transform="translate(0,0)"/>
<path d="" fill="#6E5E96" transform="translate(0,0)"/>
<path d="" fill="#6E5F96" transform="translate(0,0)"/>
<path d="M0 0 C2 1 2 1 2 1 Z " fill="#73639A" transform="translate(585,163)"/>
<path d="" fill="#74649B" transform="translate(0,0)"/>
<path d="" fill="#736499" transform="translate(0,0)"/>
<path d="M0 0 C2 1 2 1 2 1 Z " fill="#756599" transform="translate(531,156)"/>
<path d="M0 0 C2 1 2 1 2 1 Z " fill="#74639A" transform="translate(524,156)"/>
<path d="M0 0 C2 1 2 1 2 1 Z " fill="#726299" transform="translate(492,156)"/>
<path d="M0 0 C2 1 2 1 2 1 Z " fill="#75659C" transform="translate(489,156)"/>
<path d="" fill="#73619A" transform="translate(0,0)"/>
<path d="" fill="#74619D" transform="translate(0,0)"/>
<path d="" fill="#705F99" transform="translate(0,0)"/>
<path d="" fill="#6E5E95" transform="translate(0,0)"/>
<path d="" fill="#6F6096" transform="translate(0,0)"/>
<path d="" fill="#71609A" transform="translate(0,0)"/>
<path d="" fill="#735F9B" transform="translate(0,0)"/>
<path d="" fill="#74639C" transform="translate(0,0)"/>
<path d="" fill="#6E5C97" transform="translate(0,0)"/>
<path d="" fill="#726299" transform="translate(0,0)"/>
<path d="" fill="#6F5F96" transform="translate(0,0)"/>
<path d="" fill="#76629A" transform="translate(0,0)"/>
<path d="" fill="#73629B" transform="translate(0,0)"/>
<path d="" fill="#705F99" transform="translate(0,0)"/>
<path d="" fill="#736199" transform="translate(0,0)"/>
<path d="" fill="#705B95" transform="translate(0,0)"/>
<path d="" fill="#76629A" transform="translate(0,0)"/>
<path d="" fill="#70609E" transform="translate(0,0)"/>
<path d="" fill="#746198" transform="translate(0,0)"/>
<path d="" fill="#725E99" transform="translate(0,0)"/>
<path d="" fill="#725E99" transform="translate(0,0)"/>
<path d="" fill="#72619D" transform="translate(0,0)"/>
<path d="" fill="#6D5C98" transform="translate(0,0)"/>
<path d="" fill="#705B95" transform="translate(0,0)"/>
<path d="" fill="#706299" transform="translate(0,0)"/>
<path d="" fill="#74629B" transform="translate(0,0)"/>
<path d="" fill="#736099" transform="translate(0,0)"/>
<path d="" fill="#705F99" transform="translate(0,0)"/>
<path d="" fill="#6B5A96" transform="translate(0,0)"/>
<path d="" fill="#745F97" transform="translate(0,0)"/>
<path d="" fill="#665894" transform="translate(0,0)"/>
<path d="" fill="#726199" transform="translate(0,0)"/>
<path d="" fill="#715E9A" transform="translate(0,0)"/>
<path d="" fill="#715E98" transform="translate(0,0)"/>
<path d="" fill="#725F98" transform="translate(0,0)"/>
<path d="" fill="#75619A" transform="translate(0,0)"/>
<path d="" fill="#726197" transform="translate(0,0)"/>
<path d="" fill="#726296" transform="translate(0,0)"/>
<path d="" fill="#716097" transform="translate(0,0)"/>
<path d="" fill="#72629A" transform="translate(0,0)"/>
<path d="" fill="#716098" transform="translate(0,0)"/>
<path d="" fill="#716099" transform="translate(0,0)"/>
<path d="" fill="#716299" transform="translate(0,0)"/>
<path d="" fill="#746299" transform="translate(0,0)"/>
<path d="" fill="#7564A2" transform="translate(0,0)"/>
<path d="" fill="#7464A3" transform="translate(0,0)"/>
<path d="" fill="#74639F" transform="translate(0,0)"/>
<path d="" fill="#7565A3" transform="translate(0,0)"/>
<path d="" fill="#796AA6" transform="translate(0,0)"/>
<path d="" fill="#796AA5" transform="translate(0,0)"/>
<path d="" fill="#7C6CA8" transform="translate(0,0)"/>
<path d="" fill="#7C6DA7" transform="translate(0,0)"/>
<path d="" fill="#7A68A7" transform="translate(0,0)"/>
<path d="" fill="#806DA9" transform="translate(0,0)"/>
<path d="" fill="#7A69A7" transform="translate(0,0)"/>
<path d="" fill="#7C6BA9" transform="translate(0,0)"/>
<path d="" fill="#7A6BA5" transform="translate(0,0)"/>
<path d="" fill="#7A68A4" transform="translate(0,0)"/>
<path d="" fill="#7A68A6" transform="translate(0,0)"/>
<path d="" fill="#7866A5" transform="translate(0,0)"/>
<path d="" fill="#7766A3" transform="translate(0,0)"/>
<path d="" fill="#7C69A6" transform="translate(0,0)"/>
<path d="" fill="#7C69A7" transform="translate(0,0)"/>
<path d="" fill="#7B6AA7" transform="translate(0,0)"/>
<path d="" fill="#7D69A8" transform="translate(0,0)"/>
<path d="" fill="#7D6BA9" transform="translate(0,0)"/>
<path d="" fill="#7C6AA9" transform="translate(0,0)"/>
<path d="" fill="#7B68A8" transform="translate(0,0)"/>
<path d="" fill="#7763A0" transform="translate(0,0)"/>
<path d="" fill="#7967A5" transform="translate(0,0)"/>
<path d="" fill="#7969A7" transform="translate(0,0)"/>
<path d="" fill="#7768A5" transform="translate(0,0)"/>
<path d="" fill="#7664A0" transform="translate(0,0)"/>
<path d="" fill="#7866A6" transform="translate(0,0)"/>
<path d="" fill="#7B69A5" transform="translate(0,0)"/>
<path d="" fill="#7B6AA6" transform="translate(0,0)"/>
<path d="" fill="#7562A2" transform="translate(0,0)"/>
<path d="" fill="#7666A3" transform="translate(0,0)"/>
<path d="" fill="#6F5D9E" transform="translate(0,0)"/>
<path d="" fill="#715F97" transform="translate(0,0)"/>
<path d="" fill="#745F9F" transform="translate(0,0)"/>
<path d="" fill="#7B68A7" transform="translate(0,0)"/>
<path d="" fill="#7B69A8" transform="translate(0,0)"/>
<path d="" fill="#7B67A7" transform="translate(0,0)"/>
<path d="" fill="#6F5B95" transform="translate(0,0)"/>
<path d="" fill="#715E97" transform="translate(0,0)"/>
<path d="" fill="#735F98" transform="translate(0,0)"/>
<path d="" fill="#73619F" transform="translate(0,0)"/>
<path d="" fill="#7B68A7" transform="translate(0,0)"/>
<path d="" fill="#7867A5" transform="translate(0,0)"/>
<path d="" fill="#6E5C97" transform="translate(0,0)"/>
<path d="" fill="#6F5F96" transform="translate(0,0)"/>
<path d="" fill="#6F5F99" transform="translate(0,0)"/>
<path d="" fill="#6D5D96" transform="translate(0,0)"/>
<path d="" fill="#72629B" transform="translate(0,0)"/>
<path d="" fill="#73639B" transform="translate(0,0)"/>
<path d="" fill="#705E99" transform="translate(0,0)"/>
<path d="" fill="#6F5C93" transform="translate(0,0)"/>
<path d="" fill="#715D96" transform="translate(0,0)"/>
<path d="" fill="#70629C" transform="translate(0,0)"/>
<path d="" fill="#7967A6" transform="translate(0,0)"/>
<path d="" fill="#7968A6" transform="translate(0,0)"/>
<path d="" fill="#7A68A7" transform="translate(0,0)"/>
<path d="" fill="#6E5F96" transform="translate(0,0)"/>
<path d="" fill="#706298" transform="translate(0,0)"/>
<path d="" fill="#726099" transform="translate(0,0)"/>
<path d="" fill="#7663A1" transform="translate(0,0)"/>
<path d="" fill="#7866A3" transform="translate(0,0)"/>
<path d="" fill="#73629B" transform="translate(0,0)"/>
<path d="" fill="#726298" transform="translate(0,0)"/>
<path d="" fill="#7160A0" transform="translate(0,0)"/>
<path d="" fill="#7765A2" transform="translate(0,0)"/>
<path d="" fill="#7461A0" transform="translate(0,0)"/>
<path d="" fill="#72619B" transform="translate(0,0)"/>
<path d="" fill="#73639A" transform="translate(0,0)"/>
<path d="" fill="#72639B" transform="translate(0,0)"/>
<path d="" fill="#7463A1" transform="translate(0,0)"/>
<path d="" fill="#715D96" transform="translate(0,0)"/>
<path d="" fill="#726299" transform="translate(0,0)"/>
<path d="" fill="#6F5B96" transform="translate(0,0)"/>
<path d="" fill="#6D5B92" transform="translate(0,0)"/>
<path d="" fill="#7766A2" transform="translate(0,0)"/>
<path d="" fill="#726399" transform="translate(0,0)"/>
<path d="" fill="#72619E" transform="translate(0,0)"/>
<path d="" fill="#7564A1" transform="translate(0,0)"/>
<path d="" fill="#7C66A9" transform="translate(0,0)"/>
<path d="" fill="#7D67A9" transform="translate(0,0)"/>
<path d="" fill="#7C68A8" transform="translate(0,0)"/>
<path d="" fill="#715F9F" transform="translate(0,0)"/>
<path d="" fill="#74629B" transform="translate(0,0)"/>
<path d="" fill="#7966A8" transform="translate(0,0)"/>
<path d="" fill="#7A68A7" transform="translate(0,0)"/>
<path d="" fill="#7D68A9" transform="translate(0,0)"/>
<path d="" fill="#6F5F99" transform="translate(0,0)"/>
<path d="" fill="#7764A4" transform="translate(0,0)"/>
<path d="" fill="#7D69A8" transform="translate(0,0)"/>
<path d="" fill="#7C69A9" transform="translate(0,0)"/>
<path d="" fill="#75629A" transform="translate(0,0)"/>
<path d="" fill="#7C69A7" transform="translate(0,0)"/>
<path d="" fill="#7D6AAA" transform="translate(0,0)"/>
<path d="" fill="#7C69A7" transform="translate(0,0)"/>
<path d="" fill="#7B6BA8" transform="translate(0,0)"/>
<path d="" fill="#7D69A7" transform="translate(0,0)"/>
<path d="" fill="#7B69A8" transform="translate(0,0)"/>
<path d="" fill="#7B69A8" transform="translate(0,0)"/>
<path d="" fill="#736099" transform="translate(0,0)"/>
<path d="" fill="#6E5D96" transform="translate(0,0)"/>
<path d="" fill="#73609A" transform="translate(0,0)"/>
<path d="" fill="#6B5591" transform="translate(0,0)"/>
<path d="" fill="#72619A" transform="translate(0,0)"/>
<path d="" fill="#72619B" transform="translate(0,0)"/>
<path d="" fill="#72619A" transform="translate(0,0)"/>
<path d="" fill="#75629D" transform="translate(0,0)"/>
<path d="" fill="#73639E" transform="translate(0,0)"/>
<path d="" fill="#715F98" transform="translate(0,0)"/>
<path d="" fill="#74639C" transform="translate(0,0)"/>
<path d="" fill="#75639F" transform="translate(0,0)"/>
<path d="" fill="#72639C" transform="translate(0,0)"/>
<path d="" fill="#6F609A" transform="translate(0,0)"/>
<path d="" fill="#716299" transform="translate(0,0)"/>
<path d="" fill="#74619C" transform="translate(0,0)"/>
<path d="" fill="#6F5F9A" transform="translate(0,0)"/>
<path d="" fill="#7562A1" transform="translate(0,0)"/>
<path d="" fill="#74649B" transform="translate(0,0)"/>
<path d="" fill="#7565A0" transform="translate(0,0)"/>
<path d="" fill="#76619F" transform="translate(0,0)"/>
<path d="" fill="#74629F" transform="translate(0,0)"/>
<path d="" fill="#7762A3" transform="translate(0,0)"/>
<path d="" fill="#7764A2" transform="translate(0,0)"/>
<path d="" fill="#76649A" transform="translate(0,0)"/>
<path d="" fill="#6E5C97" transform="translate(0,0)"/>
<path d="" fill="#77659C" transform="translate(0,0)"/>
<path d="" fill="#7263A0" transform="translate(0,0)"/>
<path d="" fill="#7666A0" transform="translate(0,0)"/>
<path d="" fill="#6F61A2" transform="translate(0,0)"/>
<path d="" fill="#7564A0" transform="translate(0,0)"/>
<path d="" fill="#74649D" transform="translate(0,0)"/>
<path d="" fill="#74649C" transform="translate(0,0)"/>
<path d="" fill="#74649D" transform="translate(0,0)"/>
<path d="" fill="#73629A" transform="translate(0,0)"/>
<path d="" fill="#73609A" transform="translate(0,0)"/>
<path d="" fill="#7766A1" transform="translate(0,0)"/>
<path d="" fill="#7664A0" transform="translate(0,0)"/>
<path d="" fill="#75639C" transform="translate(0,0)"/>
<path d="" fill="#7A67A2" transform="translate(0,0)"/>
<path d="" fill="#74649C" transform="translate(0,0)"/>
<path d="" fill="#75669F" transform="translate(0,0)"/>
<path d="" fill="#75669F" transform="translate(0,0)"/>
<path d="" fill="#73659E" transform="translate(0,0)"/>
<path d="" fill="#7867A0" transform="translate(0,0)"/>
<path d="" fill="#76649D" transform="translate(0,0)"/>
<path d="" fill="#72639C" transform="translate(0,0)"/>
<path d="" fill="#72619D" transform="translate(0,0)"/>
<path d="" fill="#72649B" transform="translate(0,0)"/>
<path d="" fill="#74649C" transform="translate(0,0)"/>
<path d="" fill="#76679F" transform="translate(0,0)"/>
<path d="" fill="#7667A1" transform="translate(0,0)"/>
<path d="" fill="#7467A0" transform="translate(0,0)"/>
<path d="" fill="#7567A2" transform="translate(0,0)"/>
<path d="" fill="#7665A0" transform="translate(0,0)"/>
<path d="" fill="#7362A0" transform="translate(0,0)"/>
<path d="" fill="#7563A1" transform="translate(0,0)"/>
<path d="" fill="#75659D" transform="translate(0,0)"/>
<path d="" fill="#7669A3" transform="translate(0,0)"/>
<path d="" fill="#7963A1" transform="translate(0,0)"/>
<path d="" fill="#7868A1" transform="translate(0,0)"/>
<path d="" fill="#7763A3" transform="translate(0,0)"/>
<path d="" fill="#7766A1" transform="translate(0,0)"/>
<path d="" fill="#76629E" transform="translate(0,0)"/>
<path d="" fill="#7664A0" transform="translate(0,0)"/>
<path d="" fill="#7966A3" transform="translate(0,0)"/>
<path d="" fill="#7460A4" transform="translate(0,0)"/>
<path d="" fill="#75639F" transform="translate(0,0)"/>
<path d="" fill="#7769A4" transform="translate(0,0)"/>
<path d="" fill="#7663A1" transform="translate(0,0)"/>
<path d="" fill="#7462A2" transform="translate(0,0)"/>
<path d="" fill="#7B66A1" transform="translate(0,0)"/>
<path d="" fill="#73659E" transform="translate(0,0)"/>
<path d="" fill="#79649E" transform="translate(0,0)"/>
<path d="" fill="#74649F" transform="translate(0,0)"/>
<path d="" fill="#74659A" transform="translate(0,0)"/>
<path d="" fill="#74659E" transform="translate(0,0)"/>
<path d="" fill="#74659C" transform="translate(0,0)"/>
<path d="" fill="#76669D" transform="translate(0,0)"/>
<path d="" fill="#75649D" transform="translate(0,0)"/>
<path d="" fill="#716298" transform="translate(0,0)"/>
<path d="" fill="#73619F" transform="translate(0,0)"/>
<path d="" fill="#6E609A" transform="translate(0,0)"/>
<path d="" fill="#72629F" transform="translate(0,0)"/>
<path d="" fill="#75639D" transform="translate(0,0)"/>
<path d="" fill="#73649F" transform="translate(0,0)"/>
<path d="" fill="#73619E" transform="translate(0,0)"/>
<path d="" fill="#7462A1" transform="translate(0,0)"/>
<path d="" fill="#73649B" transform="translate(0,0)"/>
<path d="" fill="#75669A" transform="translate(0,0)"/>
<path d="" fill="#7362A0" transform="translate(0,0)"/>
<path d="" fill="#7261A0" transform="translate(0,0)"/>
<path d="" fill="#716297" transform="translate(0,0)"/>
<path d="" fill="#7563A1" transform="translate(0,0)"/>
<path d="" fill="#70629F" transform="translate(0,0)"/>
<path d="" fill="#74609F" transform="translate(0,0)"/>
<path d="" fill="#725F9F" transform="translate(0,0)"/>
<path d="" fill="#726097" transform="translate(0,0)"/>
<path d="" fill="#6F5F99" transform="translate(0,0)"/>
<path d="" fill="#71609E" transform="translate(0,0)"/>
<path d="" fill="#736399" transform="translate(0,0)"/>
<path d="" fill="#6F6099" transform="translate(0,0)"/>
<path d="" fill="#716499" transform="translate(0,0)"/>
<path d="" fill="#71619B" transform="translate(0,0)"/>
<path d="" fill="#7262A0" transform="translate(0,0)"/>
<path d="" fill="#74659A" transform="translate(0,0)"/>
<path d="" fill="#6F619B" transform="translate(0,0)"/>
<path d="" fill="#7361A0" transform="translate(0,0)"/>
<path d="" fill="#705F99" transform="translate(0,0)"/>
<path d="" fill="#72609D" transform="translate(0,0)"/>
<path d="" fill="#71619B" transform="translate(0,0)"/>
<path d="" fill="#715F9C" transform="translate(0,0)"/>
<path d="" fill="#75639D" transform="translate(0,0)"/>
<path d="" fill="#72629E" transform="translate(0,0)"/>
<path d="" fill="#716397" transform="translate(0,0)"/>
<path d="" fill="#7263A0" transform="translate(0,0)"/>
<path d="" fill="#74609F" transform="translate(0,0)"/>
<path d="" fill="#715F9C" transform="translate(0,0)"/>
<path d="" fill="#73619C" transform="translate(0,0)"/>
<path d="" fill="#716099" transform="translate(0,0)"/>
<path d="" fill="#71619F" transform="translate(0,0)"/>
<path d="" fill="#74629F" transform="translate(0,0)"/>
<path d="" fill="#6F6095" transform="translate(0,0)"/>
<path d="" fill="#73679C" transform="translate(0,0)"/>
<path d="" fill="#706197" transform="translate(0,0)"/>
<path d="" fill="#7564A1" transform="translate(0,0)"/>
<path d="" fill="#72629D" transform="translate(0,0)"/>
<path d="" fill="#73629E" transform="translate(0,0)"/>
<path d="" fill="#6F6096" transform="translate(0,0)"/>
<path d="" fill="#71609E" transform="translate(0,0)"/>
<path d="" fill="#716295" transform="translate(0,0)"/>
<path d="" fill="#7261A0" transform="translate(0,0)"/>
<path d="" fill="#72619D" transform="translate(0,0)"/>
<path d="" fill="#6F6299" transform="translate(0,0)"/>
<path d="" fill="#74649B" transform="translate(0,0)"/>
<path d="" fill="#726299" transform="translate(0,0)"/>
<path d="" fill="#72619D" transform="translate(0,0)"/>
<path d="" fill="#735FA0" transform="translate(0,0)"/>
<path d="" fill="#735F9F" transform="translate(0,0)"/>
<path d="" fill="#706198" transform="translate(0,0)"/>
<path d="" fill="#70609D" transform="translate(0,0)"/>
<path d="" fill="#7360A0" transform="translate(0,0)"/>
<path d="" fill="#706295" transform="translate(0,0)"/>
<path d="" fill="#74629F" transform="translate(0,0)"/>
<path d="" fill="#7463A0" transform="translate(0,0)"/>
<path d="" fill="#7362A0" transform="translate(0,0)"/>
<path d="" fill="#716196" transform="translate(0,0)"/>
<path d="" fill="#6E5E97" transform="translate(0,0)"/>
<path d="" fill="#6C5D93" transform="translate(0,0)"/>
<path d="" fill="#72609D" transform="translate(0,0)"/>
<path d="" fill="#7664A2" transform="translate(0,0)"/>
<path d="" fill="#735F9B" transform="translate(0,0)"/>
<path d="" fill="#735F9E" transform="translate(0,0)"/>
<path d="" fill="#76679B" transform="translate(0,0)"/>
<path d="" fill="#73609F" transform="translate(0,0)"/>
<path d="" fill="#7462A2" transform="translate(0,0)"/>
<path d="" fill="#73649F" transform="translate(0,0)"/>
<path d="" fill="#755D9C" transform="translate(0,0)"/>
<path d="" fill="#725F9C" transform="translate(0,0)"/>
<path d="" fill="#716197" transform="translate(0,0)"/>
<path d="" fill="#75649A" transform="translate(0,0)"/>
<path d="" fill="#756499" transform="translate(0,0)"/>
<path d="" fill="#77699F" transform="translate(0,0)"/>
<path d="" fill="#6F5C95" transform="translate(0,0)"/>
<path d="" fill="#76649B" transform="translate(0,0)"/>
<path d="" fill="#716299" transform="translate(0,0)"/>
<path d="" fill="#74649C" transform="translate(0,0)"/>
<path d="" fill="#72619A" transform="translate(0,0)"/>
<path d="" fill="#715F95" transform="translate(0,0)"/>
<path d="" fill="#716094" transform="translate(0,0)"/>
<path d="" fill="#6F6197" transform="translate(0,0)"/>
<path d="" fill="#6C5E96" transform="translate(0,0)"/>
<path d="" fill="#6E5D97" transform="translate(0,0)"/>
<path d="" fill="#6E5F98" transform="translate(0,0)"/>
<path d="" fill="#716196" transform="translate(0,0)"/>
<path d="" fill="#71609B" transform="translate(0,0)"/>
<path d="" fill="#715F96" transform="translate(0,0)"/>
<path d="" fill="#6D5C96" transform="translate(0,0)"/>
<path d="" fill="#6D5D98" transform="translate(0,0)"/>
<path d="" fill="#705E94" transform="translate(0,0)"/>
<path d="" fill="#705E97" transform="translate(0,0)"/>
<path d="" fill="#716297" transform="translate(0,0)"/>
<path d="" fill="#6B5D94" transform="translate(0,0)"/>
<path d="" fill="#6E5E98" transform="translate(0,0)"/>
<path d="" fill="#746299" transform="translate(0,0)"/>
<path d="" fill="#726197" transform="translate(0,0)"/>
<path d="" fill="#71649B" transform="translate(0,0)"/>
<path d="" fill="#70639B" transform="translate(0,0)"/>
<path d="" fill="#726199" transform="translate(0,0)"/>
<path d="" fill="#706096" transform="translate(0,0)"/>
<path d="" fill="#73639A" transform="translate(0,0)"/>
<path d="" fill="#73629D" transform="translate(0,0)"/>
<path d="" fill="#685A92" transform="translate(0,0)"/>
<path d="" fill="#6F6397" transform="translate(0,0)"/>
<path d="" fill="#736399" transform="translate(0,0)"/>
<path d="" fill="#73649A" transform="translate(0,0)"/>
<path d="" fill="#736497" transform="translate(0,0)"/>
<path d="" fill="#706098" transform="translate(0,0)"/>
<path d="" fill="#736199" transform="translate(0,0)"/>
<path d="" fill="#71609B" transform="translate(0,0)"/>
<path d="" fill="#736198" transform="translate(0,0)"/>
<path d="" fill="#75659C" transform="translate(0,0)"/>
<path d="" fill="#716197" transform="translate(0,0)"/>
<path d="" fill="#73639C" transform="translate(0,0)"/>
<path d="" fill="#726399" transform="translate(0,0)"/>
<path d="" fill="#715F96" transform="translate(0,0)"/>
<path d="" fill="#715F96" transform="translate(0,0)"/>
<path d="" fill="#72629B" transform="translate(0,0)"/>
<path d="" fill="#716199" transform="translate(0,0)"/>
<path d="" fill="#75669C" transform="translate(0,0)"/>
<path d="" fill="#736399" transform="translate(0,0)"/>
<path d="" fill="#75669D" transform="translate(0,0)"/>
<path d="" fill="#6A5993" transform="translate(0,0)"/>
<path d="" fill="#75669B" transform="translate(0,0)"/>
<path d="" fill="#726399" transform="translate(0,0)"/>
<path d="" fill="#746699" transform="translate(0,0)"/>
<path d="" fill="#74679D" transform="translate(0,0)"/>
<path d="" fill="#74649B" transform="translate(0,0)"/>
<path d="" fill="#75669F" transform="translate(0,0)"/>
<path d="" fill="#73629A" transform="translate(0,0)"/>
<path d="" fill="#73639B" transform="translate(0,0)"/>
<path d="" fill="#73609A" transform="translate(0,0)"/>
<path d="" fill="#73669C" transform="translate(0,0)"/>
<path d="" fill="#75659C" transform="translate(0,0)"/>
<path d="" fill="#75639C" transform="translate(0,0)"/>
<path d="" fill="#706498" transform="translate(0,0)"/>
<path d="" fill="#736699" transform="translate(0,0)"/>
<path d="" fill="#75649B" transform="translate(0,0)"/>
<path d="" fill="#74629A" transform="translate(0,0)"/>
<path d="" fill="#75669E" transform="translate(0,0)"/>
<path d="" fill="#74639A" transform="translate(0,0)"/>
<path d="" fill="#73649B" transform="translate(0,0)"/>
<path d="" fill="#726499" transform="translate(0,0)"/>
<path d="" fill="#726298" transform="translate(0,0)"/>
</svg>
